<?xml version="1.0" encoding="UTF-8"?>
<svg version="1.1" xmlns="http://www.w3.org/2000/svg" width="1040" height="300">
<path d="M0 0 C15.51 0 31.02 0 47 0 C47 0.99 47 1.98 47 3 C48.28390625 2.96519531 49.5678125 2.93039062 50.890625 2.89453125 C72.68525948 2.4871549 94.30059516 5.12301309 114 15 C115.15757812 15.54914062 116.31515625 16.09828125 117.5078125 16.6640625 C124.19306025 19.86216692 130.24013084 23.30115937 136 28 C137.2893939 28.94062342 138.58113233 29.87804001 139.875 30.8125 C152.7881247 40.55398004 163.81023058 52.04016577 172 66 C172.51046875 66.79792969 173.0209375 67.59585938 173.546875 68.41796875 C177.87893487 75.26217674 180.99223054 82.49335724 184 90 C184.38285156 90.93972656 184.76570313 91.87945312 185.16015625 92.84765625 C187.95601336 100.06585769 189.59902835 107.39827808 191 115 C191.20753906 116.08925781 191.41507812 117.17851563 191.62890625 118.30078125 C195.22208943 139.68399027 193.73752684 163.67165887 186 184 C185.63003906 184.97582031 185.26007813 185.95164063 184.87890625 186.95703125 C183.65878732 190.00932878 182.35535253 193.00535236 181 196 C180.49726563 197.11246094 179.99453125 198.22492188 179.4765625 199.37109375 C171.95652742 215.20553381 161.1699772 228.69748528 148.29296875 240.57446289 C147.86628906 241.04489014 147.43960938 241.51531738 147 242 C147.26874705 243.95236766 147.26874705 243.95236766 148 246 C148.06548492 247.58211573 148.08578381 249.16670081 148.0625 250.75 C148.05347656 251.54921875 148.04445312 252.3484375 148.03515625 253.171875 C148.01775391 254.07679688 148.01775391 254.07679688 148 255 C149.65 255 151.3 255 153 255 C153 262.92 153 270.84 153 279 C155.64 279 158.28 279 161 279 C161 285.6 161 292.2 161 299 C103.91 299 46.82 299 -12 299 C-12 272 -12 272 -11 271 C-8.66702567 270.95907063 -6.33294775 270.95758277 -4 271 C-4 267.37 -4 263.74 -4 260 C-4.86625 259.7525 -5.7325 259.505 -6.625 259.25 C-10.21862314 257.91902847 -12.83946929 256.15436925 -16 254 C-16.88558594 253.45601562 -17.77117187 252.91203125 -18.68359375 252.3515625 C-44.38265904 236.2395244 -67.59233003 207.83512339 -75 178 C-76.39913081 171.3389466 -77.5381352 164.63326521 -78.59863281 157.91088867 C-78.81833575 155.99944555 -78.81833575 155.99944555 -80 155 C-81.73521957 143.62467169 -82.32579166 130.88500099 -79.0390625 119.7421875 C-78.15053395 116.54214859 -77.5472272 113.4349452 -77.0637207 110.15380859 C-73.2475183 84.71443913 -59.58256717 62.37622471 -42 44 C-41.278125 43.20335937 -40.55625 42.40671875 -39.8125 41.5859375 C-22.83192799 23.51539634 0.20441209 11.94889698 24 6 C16.08 5.67 8.16 5.34 0 5 C0 3.35 0 1.7 0 0 Z M-3 33 C-4.00546875 33.47308594 -5.0109375 33.94617187 -6.046875 34.43359375 C-9.53000898 36.2811291 -12.48115594 38.49492691 -15.5625 40.9375 C-16.11357422 41.36740234 -16.66464844 41.79730469 -17.23242188 42.24023438 C-18.82693366 43.48671512 -20.41361051 44.74319832 -22 46 C-22.85464844 46.66128906 -23.70929687 47.32257812 -24.58984375 48.00390625 C-35.81431953 57.30002801 -45.42276569 70.07054203 -52 83 C-52.53109375 84.03511719 -53.0621875 85.07023437 -53.609375 86.13671875 C-67.40110973 114.43708531 -68.41256784 147.652795 -59.29296875 177.52734375 C-56.76823303 184.30828048 -53.44268345 190.64780767 -50 197 C-49.52820312 197.90492188 -49.05640625 198.80984375 -48.5703125 199.7421875 C-40.28193666 214.70049893 -25.85472003 230.1994314 -11.08203125 238.6953125 C-9 240 -9 240 -8 242 C-1.65048631 246.15741968 3.47681236 247.60670868 11 247 C11 244.69 11 242.38 11 240 C13.64 240 16.28 240 19 240 C19 237.36 19 234.72 19 232 C21.64 232 24.28 232 27 232 C26.69223823 228.69010924 26.23318104 227.24855079 23.92578125 224.7890625 C23.06339844 224.07492188 22.20101562 223.36078125 21.3125 222.625 C14.07706032 216.34946887 10.06506332 211.91405646 7.0546875 202.74609375 C6.01475368 200.0384142 4.81160236 198.03388722 3.125 195.6875 C-0.24245205 190.95946126 -2.33342287 185.88960971 -4.5078125 180.52734375 C-5.59672038 177.95330235 -6.73095038 175.55332341 -8.01953125 173.0859375 C-10.05608846 169.06446091 -11.39530723 165.03316094 -12.5625 160.6875 C-12.77156982 159.91043701 -12.98063965 159.13337402 -13.19604492 158.33276367 C-18.39280118 138.31852783 -23.37413553 110.69842502 -13.6875 91.3828125 C-12.53302864 89.53959401 -11.27717059 87.76042433 -10 86 C-10 85.34 -10 84.68 -10 84 C-9.46117187 83.731875 -8.92234375 83.46375 -8.3671875 83.1875 C-6.63913159 82.32062047 -4.91579808 81.44430877 -3.1953125 80.5625 C-2.18210938 80.046875 -1.16890625 79.53125 -0.125 79 C0.88304688 78.484375 1.89109375 77.96875 2.9296875 77.4375 C7.51543092 75.29048527 12.17550016 73.94991042 17.0625 72.6875 C20.69675573 71.63832498 21.86606956 71.14046363 24.5625 68.3125 C27.26998155 65.74386366 27.92658781 65.59005947 31.5 65.4375 C35.75138392 65.67841176 38.07027678 66.79561522 41 70 C42.04976964 73.14930893 42.10131595 75.38814456 42.0625 78.6875 C42.05347656 79.68136719 42.04445313 80.67523438 42.03515625 81.69921875 C42.02355469 82.45847656 42.01195313 83.21773438 42 84 C40.515 84.495 40.515 84.495 39 85 C38.34 85.99 37.68 86.98 37 88 C34.015625 88.15234375 34.015625 88.15234375 30.25 87.9375 C19.89746588 87.61080272 10.45296773 89.8019609 2 96 C-4.01745879 102.35176206 -4.11103752 111.71834876 -4 120.09375 C-3.38483703 137.81374649 0.24741842 154.47145991 7.8515625 170.52734375 C8.99412499 172.98735074 10.01468577 175.47343737 11 178 C11.33 178 11.66 178 12 178 C12.495 174.04 12.495 174.04 13 170 C13.66 170.33 14.32 170.66 15 171 C15.33 170.34 15.66 169.68 16 169 C19.30836553 167.54955274 22.63211198 166.1969736 26.00976562 164.91796875 C30.98308965 162.88859774 33.44953952 160.95365027 36 156 C36 155.34 36 154.68 36 154 C38.65228812 152.92474806 41.28368454 151.90543849 44 151 C43.80664062 150.41992188 43.61328125 149.83984375 43.4140625 149.2421875 C42.609375 146.828125 41.8046875 144.4140625 41 142 C40.64421875 141.09378906 40.2884375 140.18757813 39.921875 139.25390625 C38.7512544 135.12201236 38.63209216 131.33552725 38.625 127.0625 C38.60050781 126.28970703 38.57601562 125.51691406 38.55078125 124.72070312 C38.52174658 118.99603304 39.73090159 115.71063811 43 111 C46.82206115 107.81494904 51.08359583 106.85439221 56 107 C62.25848934 108.18695488 67.70029444 110.50444953 73 114 C74.83736985 117.6747397 74.22791168 122.01757561 74.25 126.0625 C74.2809375 127.43825195 74.2809375 127.43825195 74.3125 128.84179688 C74.34809681 135.12018442 73.35501549 140.19040951 71 146 C70.608125 147.010625 70.21625 148.02125 69.8125 149.0625 C69.544375 149.701875 69.27625 150.34125 69 151 C69.928125 151.556875 70.85625 152.11375 71.8125 152.6875 C75 155 75 155 76.2734375 157.41796875 C78.51298304 160.76715337 81.25121966 162.0140334 84.8125 163.625 C85.41642578 163.91117188 86.02035156 164.19734375 86.64257812 164.4921875 C89.53563806 165.86242041 92.41093335 167.16030656 95.39453125 168.32421875 C98 170 98 170 98.8046875 172.91796875 C98.82789063 173.99691406 98.85109375 175.07585937 98.875 176.1875 C98.93300781 177.81751953 98.93300781 177.81751953 98.9921875 179.48046875 C98.99476563 180.31191406 98.99734375 181.14335937 99 182 C99.66 182 100.32 182 101 182 C117.26846616 143.52732048 117.26846616 143.52732048 115.625 102.5625 C112.5493508 95.86274667 106.87899074 92.51362016 100.20703125 89.91015625 C93.18113583 87.85264032 86.48657942 87.85548435 79.25 88.28515625 C76 88 76 88 73.625 86.12109375 C70.23084447 81.6907417 70.51404781 77.42220334 71 72 C72.3125 68.9375 72.3125 68.9375 74 67 C78.05142689 65.64952437 81.76758269 65.31345816 86 66 C87.70993434 67.6222454 89.37347684 69.29413425 91 71 C93.40636315 71.95215808 95.81989045 72.59766007 98.3203125 73.26171875 C102.70699614 74.47029485 106.84362897 76.16083902 111 78 C111.78632813 78.34675781 112.57265625 78.69351563 113.3828125 79.05078125 C120.91480935 82.76571529 125.80404651 88.25758331 128.671875 96.1640625 C130.66075209 103.23613334 130.44800259 110.45012916 130.39111328 117.73852539 C130.37514502 120.16545841 130.39096365 122.59069816 130.41015625 125.01757812 C130.43020832 138.58824538 128.45826804 151.13268282 123.75 163.9375 C123.30092285 165.18865601 123.30092285 165.18865601 122.84277344 166.46508789 C119.28619881 176.21043614 115.54573885 186.19651838 110 195 C106.83592015 199.97079313 106.83592015 199.97079313 105.5625 205.625 C104.85526428 209.86841431 103.13486629 211.18665846 100 214 C100 214.66 100 215.32 100 216 C99.34 216 98.68 216 98 216 C98 218.64 98 221.28 98 224 C105.92 224 113.84 224 122 224 C122 224.99 122 225.98 122 227 C122.69867188 227.12117187 123.39734375 227.24234375 124.1171875 227.3671875 C125.48230469 227.61855469 125.48230469 227.61855469 126.875 227.875 C128.23238281 228.11863281 128.23238281 228.11863281 129.6171875 228.3671875 C132 229 132 229 134 231 C136.10820797 230.6814823 136.10820797 230.6814823 138 230 C138 229.34 138 228.68 138 228 C138.66 228 139.32 228 140 228 C141.67080281 226.34839219 141.67080281 226.34839219 143.375 224.25 C145.17539873 222.10855657 146.94180639 220.05587514 148.9609375 218.1171875 C151.42039908 215.56349368 153.29086822 212.82820976 155.25 209.875 C155.95640625 208.82054687 156.6628125 207.76609375 157.390625 206.6796875 C159.17162109 204.23521422 159.17162109 204.23521422 159 202 C159.66 202 160.32 202 161 202 C165.25194483 193.8185893 169.06534605 185.7626287 172 177 C172.39638672 175.98679688 172.39638672 175.98679688 172.80078125 174.953125 C181.60394204 151.65860721 179.06140128 125.56040325 173 102 C172.34 102 171.68 102 171 102 C170.6596875 100.1128125 170.6596875 100.1128125 170.3125 98.1875 C166.71075296 82.40841774 156.56171998 68.00748692 145.4453125 56.55078125 C143 54 143 54 141.02734375 51.44140625 C128.6328253 36.51544472 105.48689098 25.72165188 87 21 C86.19046875 20.78730469 85.3809375 20.57460938 84.546875 20.35546875 C54.68757138 13.09944916 23.63798232 18.74137117 -3 33 Z M45 155 C44.70894432 160.59554553 45.62367726 164.77000574 47.5 169.9375 C47.85771484 170.96327148 47.85771484 170.96327148 48.22265625 172.00976562 C48.80545882 173.67658097 49.40137051 175.33880316 50 177 C50.33 177 50.66 177 51 177 C53.18916256 167.97904781 53.18916256 167.97904781 52 159 C49.75190226 157.19291665 47.66212309 156.21005595 45 155 Z M64.5625 156.4375 C61.09160689 159.90839311 60.14728062 163.12337498 60 168 C60.68985005 170.66223821 61.65348779 172.56592024 63 175 C66.63474199 168.2897071 68.40989308 162.65133742 68 155 C66.67192634 154.91533583 66.67192634 154.91533583 64.5625 156.4375 Z " fill="#4A4B4C" transform="translate(84,1)"/>
<path d="M0 0 C2.86700341 4.30050512 2.32991816 8.06676536 2.3125 13.125 C2.32861328 14.03765625 2.34472656 14.9503125 2.36132812 15.890625 C2.36577628 22.13583715 1.3337949 27.21940411 -1 33 C-1.5878125 34.5159375 -1.5878125 34.5159375 -2.1875 36.0625 C-2.455625 36.701875 -2.72375 37.34125 -3 38 C-2.05125 38.556875 -1.1025 39.11375 -0.125 39.6875 C3.24227666 42.17928473 3.53612189 43.29150878 5 47 C7.21171029 48.04249264 7.21171029 48.04249264 10 49 C12.40000563 49.99124812 14.79539015 50.9901647 17.1875 52 C17.81591797 52.26039063 18.44433594 52.52078125 19.09179688 52.7890625 C21.84267408 53.9541399 23.86666814 54.86666814 26 57 C27.32021429 64.08453023 28.18044534 71.29189671 24.31640625 77.66015625 C22.2145539 79.7994303 19.88774502 79.74889174 17 80 C15.56362302 81.95163118 15.56362302 81.95163118 15 84 C14.34 84 13.68 84 13 84 C12.89429688 84.59296875 12.78859375 85.1859375 12.6796875 85.796875 C11.90592401 88.30493596 10.98153209 89.42117734 9.125 91.25 C8.35542969 92.03117187 8.35542969 92.03117187 7.5703125 92.828125 C6 94 6 94 3 94 C2.505 95.485 2.505 95.485 2 97 C-3.22110274 102.05038548 -9.42506131 102.47587225 -16.3125 102.5 C-17.10132568 102.50604248 -17.89015137 102.51208496 -18.70288086 102.51831055 C-23.20931452 102.4205853 -25.5278411 102.03545438 -29 99 C-30.09441406 98.58234375 -31.18882813 98.1646875 -32.31640625 97.734375 C-36.80548099 95.89233527 -39.66253894 92.73896298 -42.9375 89.25 C-44.15533385 87.98484016 -45.37537091 86.72179723 -46.59765625 85.4609375 C-47.17918457 84.85991211 -47.76071289 84.25888672 -48.35986328 83.63964844 C-50.9795108 81.02078081 -53.815788 78.69489213 -56.7421875 76.4296875 C-58 75 -58 75 -58 71 C-58.66 71 -59.32 71 -60 71 C-61.02766017 67.91701949 -61.16598738 65.66869574 -61.1875 62.4375 C-61.20167969 61.46683594 -61.21585937 60.49617188 -61.23046875 59.49609375 C-61 57 -61 57 -59 55 C-58.34 55 -57.68 55 -57 55 C-54.33633309 54.03698196 -51.73832995 53.02214756 -49.125 51.9375 C-48.40441406 51.66228516 -47.68382813 51.38707031 -46.94140625 51.10351562 C-41.3713338 48.76982966 -39.63725164 46.38672676 -37 41 C-34.01481593 38.74290961 -32.75081172 38 -29 38 C-29.26554687 37.41992188 -29.53109375 36.83984375 -29.8046875 36.2421875 C-30.15789062 35.46101563 -30.51109375 34.67984375 -30.875 33.875 C-31.22304687 33.10929687 -31.57109375 32.34359375 -31.9296875 31.5546875 C-34.45775765 25.52053467 -35.36423216 20.55012453 -35.375 14.0625 C-35.39949219 13.28970703 -35.42398438 12.51691406 -35.44921875 11.72070312 C-35.4782673 5.99329713 -34.29931076 2.69883788 -31 -2 C-20.63133903 -10.20852326 -10.46442367 -6.56271188 0 0 Z M-28 42 C-28.29105568 47.59554553 -27.37632274 51.77000574 -25.5 56.9375 C-25.14228516 57.96327148 -25.14228516 57.96327148 -24.77734375 59.00976562 C-24.19454118 60.67658097 -23.59862949 62.33880316 -23 64 C-22.67 64 -22.34 64 -22 64 C-19.81083744 54.97904781 -19.81083744 54.97904781 -21 46 C-23.24809774 44.19291665 -25.33787691 43.21005595 -28 42 Z M-8.4375 43.4375 C-11.90839311 46.90839311 -12.85271938 50.12337498 -13 55 C-12.31014995 57.66223821 -11.34651221 59.56592024 -10 62 C-6.36525801 55.2897071 -4.59010692 49.65133742 -5 42 C-6.32807366 41.91533583 -6.32807366 41.91533583 -8.4375 43.4375 Z " fill="#027AFD" transform="translate(157,114)"/>
<path d="M0 0 C1.35476979 0.00373811 2.70954232 0.0065813 4.0643158 0.00857544 C7.60049123 0.01614918 11.13649789 0.03574246 14.67260742 0.0579834 C18.29278278 0.07857807 21.91298586 0.08760605 25.53320312 0.09765625 C32.61465829 0.11899544 39.69597212 0.15412516 46.77734375 0.1953125 C46.77734375 6.4653125 46.77734375 12.7353125 46.77734375 19.1953125 C45.0715918 19.22036865 43.36583984 19.2454248 41.60839844 19.27124023 C35.96852215 19.35518345 30.32872454 19.44344765 24.68896103 19.53465176 C21.27004903 19.58978321 17.85112833 19.64318727 14.43212891 19.69262695 C10.50023762 19.74955926 6.56848739 19.81403487 2.63671875 19.87890625 C1.41055847 19.89561874 0.18439819 19.91233124 -1.07891846 19.92955017 C-2.79023956 19.959468 -2.79023956 19.959468 -4.53613281 19.98999023 C-5.53984924 20.00553452 -6.54356567 20.0210788 -7.57769775 20.03709412 C-9.98646271 20.18118367 -11.97754114 20.31096782 -14.22265625 21.1953125 C-15.52722185 24.19147196 -15.52722185 24.19147196 -16.22265625 27.1953125 C-11.16097231 31.20975149 -6.99816426 31.33876514 -0.71484375 31.37109375 C1.01173074 31.39430724 2.73829326 31.41842518 4.46484375 31.44335938 C7.17683752 31.47833549 9.88839504 31.50774308 12.60058594 31.52124023 C15.22514504 31.53684546 17.84843761 31.57714586 20.47265625 31.62109375 C21.26987091 31.61918533 22.06708557 31.61727692 22.88845825 31.61531067 C30.39939073 31.77607759 36.92319623 33.961523 42.21484375 39.4453125 C47.7783157 46.71943649 47.39158152 55.67048483 46.5703125 64.39453125 C45.53772537 70.17021089 42.26914499 74.50532642 37.77734375 78.1953125 C32.88459706 80.62461945 29.37681737 81.5673322 23.83227539 81.53588867 C23.17776398 81.53632675 22.52325256 81.53676483 21.84890747 81.53721619 C19.71145522 81.53514624 17.57481314 81.51190263 15.4375 81.48828125 C13.94535246 81.48267886 12.45319936 81.4784118 10.96104431 81.47541809 C7.05321747 81.46401983 3.14573058 81.43459673 -0.76196289 81.40130615 C-4.75727745 81.37049631 -8.75264749 81.35688954 -12.74804688 81.34179688 C-20.57308884 81.30972141 -28.3977814 81.25699543 -36.22265625 81.1953125 C-36.22265625 75.2553125 -36.22265625 69.3153125 -36.22265625 63.1953125 C-34.52214111 63.17549316 -32.82162598 63.15567383 -31.06958008 63.13525391 C-25.44162555 63.06739412 -19.81383975 62.99061206 -14.1860857 62.90778542 C-10.77505854 62.85790846 -7.36406105 62.81157809 -3.95288086 62.7734375 C-0.02830755 62.72939945 3.89595566 62.66978331 7.8203125 62.609375 C9.04131149 62.59782379 10.26231049 62.58627258 11.52030945 62.57437134 C12.66111465 62.55450165 13.80191986 62.53463196 14.97729492 62.51416016 C15.97879074 62.50083649 16.98028656 62.48751282 18.01213074 62.4737854 C20.96902309 62.17600928 23.1385014 61.55603348 25.77734375 60.1953125 C26.85759033 57.79421033 26.85759033 57.79421033 26.77734375 55.1953125 C26.11734375 54.2053125 25.45734375 53.2153125 24.77734375 52.1953125 C22.2140855 51.88082227 19.87999014 51.75431881 17.3125 51.75390625 C16.56455673 51.74069839 15.81661346 51.72749054 15.04600525 51.71388245 C12.64391547 51.67291832 10.24220368 51.65134217 7.83984375 51.6328125 C-21.12629425 51.33974682 -21.12629425 51.33974682 -30.22265625 44.1953125 C-35.5400478 38.13771588 -36.49805327 29.88684269 -36.09765625 22.1328125 C-35.25990729 14.7248526 -33.34894041 9.63810973 -27.53515625 4.8203125 C-19.8609656 -1.0626859 -9.1209744 -0.07310788 0 0 Z " fill="#007BFE" transform="translate(572.22265625,57.8046875)"/>
<path d="M0 0 C0.80937012 -0.00191345 1.61874023 -0.0038269 2.45263672 -0.00579834 C4.1500683 -0.00714876 5.84751062 -0.00353303 7.54492188 0.00488281 C10.11872928 0.01559889 12.69183888 0.00494845 15.265625 -0.0078125 C16.92708485 -0.0064907 18.58854427 -0.00392789 20.25 0 C21.00651855 -0.00404846 21.76303711 -0.00809692 22.54248047 -0.01226807 C29.59087657 0.04851406 37.15019905 0.47197354 42.4375 5.578125 C43.40816406 6.50818359 43.40816406 6.50818359 44.3984375 7.45703125 C48.84381698 12.11361654 51.2070247 15.34191559 51.33374023 21.85375977 C51.35303085 22.78225235 51.37232147 23.71074493 51.39219666 24.66737366 C51.45022694 28.92835386 51.49925639 33.18916849 51.5300293 37.45043945 C51.55155747 39.68985463 51.58559807 41.92918685 51.63256836 44.16821289 C51.69992538 47.41069821 51.72709137 50.65144278 51.74609375 53.89453125 C51.77392441 54.88344864 51.80175507 55.87236603 51.83042908 56.89125061 C51.80530644 65.49837708 48.69707665 71.69354835 42.625 77.765625 C36.07080554 81.69814168 29.50573542 81.68118093 22.0625 81.890625 C20.37785645 81.94536987 20.37785645 81.94536987 18.65917969 82.0012207 C15.48130859 82.09963606 12.30334354 82.18418361 9.125 82.265625 C8.39104004 82.28898926 7.65708008 82.31235352 6.90087891 82.33642578 C-3.82481491 82.67328447 -16.55677213 83.07038202 -24.875 75.265625 C-30.15559912 68.47854866 -31.18938329 61.13714556 -31.2109375 52.84375 C-31.2175943 51.94372253 -31.2242511 51.04369507 -31.23110962 50.11639404 C-31.24120413 48.21693962 -31.24592763 46.31744997 -31.24560547 44.41796875 C-31.24996543 41.53845493 -31.28628213 38.66049178 -31.32421875 35.78125 C-31.44747044 16.21071085 -31.44747044 16.21071085 -24.83203125 7.609375 C-23.77048828 6.69671875 -23.77048828 6.69671875 -22.6875 5.765625 C-21.99269531 5.1365625 -21.29789062 4.5075 -20.58203125 3.859375 C-14.3544428 0.192916 -7.07444924 -0.03785847 0 0 Z M-8.875 20.265625 C-12.72380928 26.36750638 -12.39944597 32.19540622 -12.37597656 39.20605469 C-12.37500211 41.26118284 -12.41672103 43.31259531 -12.4609375 45.3671875 C-12.73265451 53.24210297 -12.73265451 53.24210297 -9.53125 60.140625 C-3.84719393 64.68786985 3.04915608 63.4496461 10 63.453125 C11.92005859 63.47149414 11.92005859 63.47149414 13.87890625 63.49023438 C15.11253906 63.49216797 16.34617187 63.49410156 17.6171875 63.49609375 C19.30884033 63.50225708 19.30884033 63.50225708 21.03466797 63.50854492 C24.13162586 63.26510416 26.33031633 62.58147967 29.125 61.265625 C29.125 60.605625 29.125 59.945625 29.125 59.265625 C30.115 58.935625 31.105 58.605625 32.125 58.265625 C33.31544112 52.61817234 33.30867367 47.07145126 33.3125 41.328125 C33.33086914 39.88276367 33.33086914 39.88276367 33.34960938 38.40820312 C33.42075403 29.38891616 33.42075403 29.38891616 29.6875 21.390625 C26.08149029 18.79429801 22.43068858 19.13662702 18.15625 19.1328125 C17.47953247 19.13185577 16.80281494 19.13089905 16.10559082 19.12991333 C14.67667549 19.12923368 13.24775704 19.13107299 11.81884766 19.13525391 C9.6330674 19.14060525 7.44749262 19.13530172 5.26171875 19.12890625 C3.87239538 19.12956707 2.48307214 19.13084831 1.09375 19.1328125 C-0.80213867 19.13450439 -0.80213867 19.13450439 -2.73632812 19.13623047 C-5.90490983 19.12177146 -5.90490983 19.12177146 -8.875 20.265625 Z " fill="#007BFE" transform="translate(463.875,57.734375)"/>
<path d="M0 0 C5.94 0 11.88 0 18 0 C19 1 19 1 19.11352539 3.95922852 C19.10828857 5.25272217 19.10305176 6.54621582 19.09765625 7.87890625 C19.09515869 9.13517822 19.09266113 10.3914502 19.09008789 11.68579102 C19.08098389 13.29510498 19.07187988 14.90441895 19.0625 16.5625 C19.041875 21.656875 19.02125 26.75125 19 32 C33.19 32 47.38 32 62 32 C62 21.44 62 10.88 62 0 C68.27 0 74.54 0 81 0 C81 26.73 81 53.46 81 81 C74.73 81 68.46 81 62 81 C62 71.1 62 61.2 62 51 C47.81 51 33.62 51 19 51 C19 60.9 19 70.8 19 81 C12.73 81 6.46 81 0 81 C0 54.27 0 27.54 0 0 Z " fill="#017CFE" transform="translate(330,58)"/>
<path d="M0 0 C7.79796831 -0.04535528 15.59586328 -0.08197588 23.39392757 -0.10362434 C27.01567969 -0.11401947 30.63733613 -0.12809965 34.2590332 -0.15087891 C37.76036571 -0.17276092 41.26160674 -0.18460067 44.7630024 -0.18975449 C46.73533778 -0.1951966 48.70763685 -0.21078449 50.67991638 -0.22659302 C59.9608009 -0.22774164 68.54697436 -0.11530309 76 6 C76 6.66 76 7.32 76 8 C76.66 8 77.32 8 78 8 C81.9166851 13.64002654 82.2034975 18.58707567 82.25 25.3125 C82.270625 26.04662109 82.29125 26.78074219 82.3125 27.53710938 C82.35823044 33.97938573 80.94460098 38.5406517 76.875 43.6875 C68.22568023 50.64456155 58.59115028 51.16747128 47.90625 51.09765625 C47.07411987 51.0962413 46.24198975 51.09482635 45.38464355 51.09336853 C42.7563907 51.08782167 40.12822662 51.07527945 37.5 51.0625 C35.70573041 51.05747812 33.91145946 51.05291642 32.1171875 51.04882812 C27.74473089 51.03872541 23.37246349 51.01914016 19 51 C19 60.9 19 70.8 19 81 C12.73 81 6.46 81 0 81 C0 64.83 0 48.66 0 32 C4.05667969 31.96261719 8.11335937 31.92523438 12.29296875 31.88671875 C15.53416974 31.84859375 18.77530365 31.80752112 22.01644135 31.7644577 C25.4341965 31.71985481 28.85183069 31.68040802 32.26977539 31.65356445 C36.19443149 31.62250194 40.11858601 31.56771382 44.04296875 31.51171875 C45.26396774 31.50532883 46.48496674 31.4989389 47.7429657 31.49235535 C48.8837709 31.47256119 50.02457611 31.45276703 51.19995117 31.43237305 C52.20144699 31.42126999 53.20294281 31.41016693 54.23478699 31.39872742 C57.48880692 30.92951692 59.38483843 29.97382765 62 28 C63.27994848 25.14831646 63.27994848 25.14831646 62.3125 22.875 C61.18519434 20.87624538 61.18519434 20.87624538 59.27337646 20.39564514 C56.59221766 19.92903195 54.03568134 19.83683577 51.31347656 19.79467773 C50.17259583 19.77473251 49.03171509 19.75478729 47.85626221 19.73423767 C46.63010193 19.71752518 45.40394165 19.70081268 44.140625 19.68359375 C42.88111023 19.66281265 41.62159546 19.64203156 40.32391357 19.62062073 C36.98341129 19.56633698 33.64289778 19.51607931 30.30230713 19.46777344 C26.89028607 19.41744296 23.47835177 19.3618173 20.06640625 19.30664062 C13.37767124 19.19954883 6.68887043 19.09825424 0 19 C0 12.73 0 6.46 0 0 Z " fill="#007BFE" transform="translate(640,58)"/>
<path d="M0 0 C0.90878906 0.01804688 1.81757813 0.03609375 2.75390625 0.0546875 C4.96211003 0.101176 7.16794115 0.1664723 9.375 0.25 C9.375 2.89 9.375 5.53 9.375 8.25 C11.025 8.25 12.675 8.25 14.375 8.25 C-1.625 24.25 -1.625 24.25 -3.75 26.0625 C-7.4811916 30.41555687 -7.83221146 35.1465121 -7.625 40.6875 C-6.6553738 48.918048 -1.5298153 54.03554142 4.7265625 59.0625 C9.26099148 62.32900808 13.87214407 63.05504744 19.375 62.25 C24.91879096 60.48318113 28.66063209 57.29310322 32.58984375 53.11328125 C37.42483424 48.06669381 42.9894132 43.69310911 48.375 39.25 C48.375 41.89 48.375 44.53 48.375 47.25 C51.015 47.25 53.655 47.25 56.375 47.25 C56.375 53.85 56.375 60.45 56.375 67.25 C9.845 67.25 -36.685 67.25 -84.625 67.25 C-84.625 60.65 -84.625 54.05 -84.625 47.25 C-81.985 47.25 -79.345 47.25 -76.625 47.25 C-76.625 43.62 -76.625 39.99 -76.625 36.25 C-74.706875 36.683125 -74.706875 36.683125 -72.75 37.125 C-68.6673389 38.03225802 -64.57553434 38.87705494 -60.47265625 39.6875 C-58.83577097 40.01083536 -57.20153554 40.3505122 -55.578125 40.73583984 C-48.23423301 42.39001846 -41.00682805 42.6814352 -33.5 42.875 C-29.25125 42.99875 -25.0025 43.1225 -20.625 43.25 C-20.625 30.38 -20.625 17.51 -20.625 4.25 C-12.55019968 1.02007987 -8.15732788 -0.31420818 0 0 Z " fill="#000000" transform="translate(172.625,232.75)"/>
<path d="M0 0 C6.93 0 13.86 0 21 0 C21.86625 2.18625 22.7325 4.3725 23.625 6.625 C28.80793002 19.75699798 28.80793002 19.75699798 34.8125 32.51953125 C38.18649855 39.19487481 40.84034313 46.2133478 43.64013672 53.14404297 C46.74283116 60.81034178 50.0244522 68.28735445 53.90283203 75.60058594 C55 78 55 78 55 81 C51.77206203 81.23329086 48.54628768 81.37467674 45.3125 81.5 C44.40048828 81.56703125 43.48847656 81.6340625 42.54882812 81.703125 C36.08528734 81.89115528 36.08528734 81.89115528 33.48364258 79.75488281 C32.01856381 77.58346422 31.02852211 75.41296504 30 73 C29.47591553 71.82566406 28.95183105 70.65132813 28.41186523 69.44140625 C26.56435771 65.23725845 24.81068377 60.99619321 23.0625 56.75 C19.02470906 46.98027064 14.90090452 37.37681664 10 28 C7.6684094 32.41336793 5.69141617 36.71696742 4.0625 41.4375 C2.50852364 45.86176212 0.56550225 49.72944749 -1.78515625 53.7734375 C-3.43919409 56.80495381 -4.65175452 59.9450302 -5.890625 63.1640625 C-7.25781124 66.65905267 -8.71392342 70.11128626 -10.1875 73.5625 C-10.69667969 74.76003906 -11.20585938 75.95757812 -11.73046875 77.19140625 C-13 80 -13 80 -14 81 C-15.4887186 81.08669432 -16.981445 81.10703494 -18.47265625 81.09765625 C-19.37177734 81.09443359 -20.27089844 81.09121094 -21.19726562 81.08789062 C-22.61555664 81.07532227 -22.61555664 81.07532227 -24.0625 81.0625 C-25.01189453 81.05798828 -25.96128906 81.05347656 -26.93945312 81.04882812 C-29.29303065 81.0370011 -31.64648477 81.02052025 -34 81 C-33.30530652 76.04782788 -31.33923467 71.7410154 -29.375 67.1875 C-28.8332312 65.91737061 -28.8332312 65.91737061 -28.28051758 64.62158203 C-27.19312671 62.07837118 -26.09827814 59.53852594 -25 57 C-24.70818848 56.32501465 -24.41637695 55.6500293 -24.11572266 54.95458984 C-21.6661782 49.30258523 -19.17908496 43.66720783 -16.68847656 38.03320312 C-15.72050128 35.84353072 -14.75315228 33.65358137 -13.78637695 31.46337891 C-12.8281959 29.29306788 -11.86848167 27.12343287 -10.90698242 24.95458984 C-8.48109117 19.45997892 -6.14005134 13.95258234 -3.98120117 8.34716797 C-2.79224428 5.50301979 -1.3786078 2.7572156 0 0 Z " fill="#007BFE" transform="translate(907,58)"/>
<path d="M0 0 C27.39 0 54.78 0 83 0 C83 5.94 83 11.88 83 18 C82.505 18.495 82.505 18.495 82 19 C71.77 19 61.54 19 51 19 C51 39.46 51 59.92 51 81 C44.73 81 38.46 81 32 81 C32 60.54 32 40.08 32 19 C21.44 19 10.88 19 0 19 C0 12.73 0 6.46 0 0 Z " fill="#007BFE" transform="translate(784,58)"/>
<path d="M0 0 C6.27 0 12.54 0 19 0 C19 20.79 19 41.58 19 63 C33.19 63 47.38 63 62 63 C62 68.94 62 74.88 62 81 C41.54 81 21.08 81 0 81 C0 54.27 0 27.54 0 0 Z " fill="#007BFE" transform="translate(977,58)"/>
<path d="M0 0 C1.670625 0.061875 1.670625 0.061875 3.375 0.125 C5.7118672 9.42439723 7.28067797 18.68166546 8.5 28.1875 C8.83402531 30.74113627 9.16987971 33.29453414 9.5078125 35.84765625 C9.65105957 36.95890869 9.79430664 38.07016113 9.94189453 39.21508789 C10.29412809 41.5816447 10.73661232 43.8228188 11.375 46.125 C13.26607409 40.31670102 14.14142093 34.50130848 15.02587891 28.46777344 C15.80109038 23.265725 16.61963198 18.07047911 17.4375 12.875 C17.61200684 11.74271973 17.78651367 10.61043945 17.96630859 9.44384766 C18.13340332 8.38472168 18.30049805 7.3255957 18.47265625 6.234375 C18.62226807 5.27499023 18.77187988 4.31560547 18.92602539 3.32714844 C19.375 1.125 19.375 1.125 20.375 0.125 C22.70797433 0.08407063 25.04205225 0.08258277 27.375 0.125 C29.69720586 6.32829588 31.00356884 12.20088435 31.69140625 18.77734375 C31.8443943 20.12585167 31.8443943 20.12585167 32.00047302 21.50160217 C32.32196978 24.35430136 32.6300012 27.2082617 32.9375 30.0625 C33.14689095 31.94085525 33.35717117 33.81911159 33.56835938 35.69726562 C33.98209977 39.38976276 34.38883112 43.08292328 34.78955078 46.77685547 C35.17112392 50.28785336 35.56516381 53.79703608 35.97216797 57.30517578 C36.06586166 58.12031143 36.15955536 58.93544708 36.25608826 59.77528381 C36.43072841 61.29059685 36.6078305 62.80562921 36.78797913 64.32029724 C37.24052475 68.27771552 37.4593887 72.14239787 37.375 76.125 C35.89593108 76.15189216 34.41672517 76.17134621 32.9375 76.1875 C32.11378906 76.19910156 31.29007813 76.21070313 30.44140625 76.22265625 C28.375 76.125 28.375 76.125 27.375 75.125 C27.08733872 73.35610906 26.85912586 71.5774832 26.65625 69.796875 C26.52863281 68.68570313 26.40101563 67.57453125 26.26953125 66.4296875 C26.13933594 65.25664062 26.00914062 64.08359375 25.875 62.875 C25.67970703 61.18503906 25.67970703 61.18503906 25.48046875 59.4609375 C24.60058996 51.69311872 23.92347144 43.92297339 23.375 36.125 C21.00434088 44.79253582 19.46222494 53.41476891 18.25 62.3125 C17.9177564 64.72316824 17.58202144 67.13335881 17.2421875 69.54296875 C17.09894043 70.59250732 16.95569336 71.6420459 16.80810547 72.72338867 C16.375 75.125 16.375 75.125 15.375 76.125 C13.5625 76.2578125 13.5625 76.2578125 11.375 76.25 C10.653125 76.25257813 9.93125 76.25515625 9.1875 76.2578125 C7.375 76.125 7.375 76.125 6.375 75.125 C5.84669961 72.2721779 5.3730908 69.42981657 4.9375 66.5625 C4.80553223 65.71292725 4.67356445 64.86335449 4.53759766 63.98803711 C3.48755629 57.12311987 2.60467074 50.24575739 1.8046875 43.34765625 C1.47076104 40.8432078 1.01467452 38.55662136 0.375 36.125 C0.29459473 36.81013672 0.21418945 37.49527344 0.13134766 38.20117188 C-0.24044411 41.34310402 -0.62016187 44.48403086 -1 47.625 C-1.12632812 48.70265625 -1.25265625 49.7803125 -1.3828125 50.890625 C-2.1023077 56.79048564 -3.08801617 62.38692704 -4.625 68.125 C-4.86947636 69.61953474 -5.0886664 71.11921972 -5.25 72.625 C-5.37375 73.78 -5.4975 74.935 -5.625 76.125 C-8.595 76.125 -11.565 76.125 -14.625 76.125 C-13.99726759 66.74559046 -13.00600708 57.44819298 -11.8125 48.125 C-11.72607239 47.44588562 -11.63964478 46.76677124 -11.55059814 46.06707764 C-11.00759849 41.80118393 -10.45699488 37.53631501 -9.90289307 33.27185059 C-9.62595696 31.13239292 -9.3523486 28.99253297 -9.07958984 26.85253906 C-8.56433775 22.81683079 -8.03336352 18.78335539 -7.5 14.75 C-7.34168701 13.50863281 -7.18337402 12.26726562 -7.02026367 10.98828125 C-6.86662354 9.85003906 -6.7129834 8.71179688 -6.5546875 7.5390625 C-6.35721924 6.03786865 -6.35721924 6.03786865 -6.15576172 4.50634766 C-5.24594438 0.4243061 -4.12770949 0.14233481 0 0 Z " fill="#4A4B4B" transform="translate(992.625,175.875)"/>
<path d="M0 0 C1.134375 0.020625 2.26875 0.04125 3.4375 0.0625 C4.77924148 5.6083648 5.71601051 10.91104599 6.09375 16.60546875 C6.36562602 19.13619201 6.36562602 19.13619201 7.3671875 21.71484375 C8.80960818 26.22635662 9.40801167 30.75590493 10.0625 35.4375 C10.1965625 36.36433594 10.330625 37.29117188 10.46875 38.24609375 C10.79659207 40.51757098 11.11936427 42.78964656 11.4375 45.0625 C12.75421686 40.709717 13.7469867 36.58660638 14.3125 32.0625 C15.23954793 25.27150603 16.30428346 18.50968355 17.4375 11.75 C17.60362793 10.71681641 17.76975586 9.68363281 17.94091797 8.61914062 C18.10479004 7.65556641 18.26866211 6.69199219 18.4375 5.69921875 C18.581875 4.82998779 18.72625 3.96075684 18.875 3.06518555 C19.1534375 2.0738562 19.1534375 2.0738562 19.4375 1.0625 C22.14629335 -0.29189668 24.44683268 -0.00251451 27.4375 0.0625 C29.08401721 3.0025891 29.78110376 5.42043261 30.1484375 8.76171875 C30.25687988 9.70748779 30.36532227 10.65325684 30.47705078 11.62768555 C30.58774902 12.65804932 30.69844727 13.68841309 30.8125 14.75 C31.06699833 17.00008042 31.32224696 19.25007606 31.578125 21.5 C31.71412109 22.71171875 31.85011719 23.9234375 31.99023438 25.171875 C32.4653957 29.30515607 32.97012196 33.43394437 33.484375 37.5625 C33.66489013 39.01863435 33.84539143 40.47477042 34.02587891 41.9309082 C34.29037455 44.06329591 34.55565059 46.19556693 34.82391357 48.32748413 C35.98338081 57.56294929 36.87097531 66.77095205 37.4375 76.0625 C34.4675 76.0625 31.4975 76.0625 28.4375 76.0625 C25.95173291 61.05409495 24.79684171 46.26801472 24.4375 31.0625 C23.7775 31.0625 23.1175 31.0625 22.4375 31.0625 C22.37272461 31.97515625 22.37272461 31.97515625 22.30664062 32.90625 C21.68509673 40.66129303 20.54200877 48.30154204 19.28076172 55.97216797 C18.93361559 58.08615454 18.59337582 60.20117474 18.25390625 62.31640625 C16.57738642 72.64284075 16.57738642 72.64284075 15.4375 76.0625 C12.7975 76.0625 10.1575 76.0625 7.4375 76.0625 C4.45064971 62.796033 2.20823418 49.54422618 0.4375 36.0625 C-0.11634721 40.00909437 -0.66757814 43.95604513 -1.21655273 47.90332031 C-1.49394785 49.89406628 -1.77331912 51.88453657 -2.05273438 53.875 C-2.95151896 60.34624899 -3.79587896 66.79554386 -4.31860352 73.30908203 C-4.5625 75.0625 -4.5625 75.0625 -5.5625 76.0625 C-7.08178038 76.13429964 -8.60417482 76.14642007 -10.125 76.125 C-11.36443359 76.11146484 -11.36443359 76.11146484 -12.62890625 76.09765625 C-13.58603516 76.08025391 -13.58603516 76.08025391 -14.5625 76.0625 C-15.74151579 72.52545264 -15.37139095 70.5703378 -14.8203125 66.8984375 C-14.64113281 65.69445312 -14.46195313 64.49046875 -14.27734375 63.25 C-14.08269531 61.991875 -13.88804687 60.73375 -13.6875 59.4375 C-13.50058594 58.17164063 -13.31367187 56.90578125 -13.12109375 55.6015625 C-11.69853232 46.19853232 -11.69853232 46.19853232 -10.5625 45.0625 C-10.21412189 42.75930205 -9.92501733 40.44710218 -9.66015625 38.1328125 C-9.57753036 37.42784637 -9.49490448 36.72288025 -9.40977478 35.99655151 C-9.14407641 33.72732271 -8.8839825 31.45750442 -8.625 29.1875 C-5.29584676 0.09290959 -5.29584676 0.09290959 0 0 Z " fill="#4A4B4B" transform="translate(603.5625,175.9375)"/>
<path d="M0 0 C3.5625 0.1875 3.5625 0.1875 5.5625 2.1875 C6.14321916 4.72016524 6.60516012 7.18687276 7 9.75 C7.12487793 10.5227124 7.24975586 11.2954248 7.37841797 12.09155273 C8.67764477 20.40352244 9.63576329 28.76052247 10.56030273 37.12133789 C10.67704346 38.15508545 10.79378418 39.18883301 10.9140625 40.25390625 C11.06609131 41.6452478 11.06609131 41.6452478 11.22119141 43.06469727 C11.34652847 45.16682584 11.34652847 45.16682584 12.5625 46.1875 C12.67319824 45.46272461 12.78389648 44.73794922 12.89794922 43.99121094 C13.41030383 40.63984663 13.9238963 37.2886731 14.4375 33.9375 C14.61152344 32.79796875 14.78554688 31.6584375 14.96484375 30.484375 C15.49153275 27.05114303 16.02529849 23.61910196 16.5625 20.1875 C16.73475098 19.07536133 16.90700195 17.96322266 17.08447266 16.81738281 C17.25253418 15.76389648 17.4205957 14.71041016 17.59375 13.625 C17.74134766 12.69042969 17.88894531 11.75585938 18.04101562 10.79296875 C18.7920735 7.04049232 20.0734887 3.70698125 21.5625 0.1875 C23.89544775 0.14508277 26.22952567 0.14657063 28.5625 0.1875 C30.78207722 2.40707722 30.52462695 7.17614932 30.9375 10.25 C31.06833984 11.20648438 31.19917969 12.16296875 31.33398438 13.1484375 C32.12690117 19.18067529 32.77798176 25.21774003 33.3203125 31.27734375 C33.41401627 32.31919579 33.41401627 32.31919579 33.50961304 33.38209534 C33.81568081 36.81757573 34.10873327 40.25359019 34.38427734 43.69165039 C35.03942737 51.33490801 36.14627255 58.62584401 37.95898438 66.08398438 C38.56787791 69.21515533 38.74221451 72.00631972 38.5625 75.1875 C37.5625 76.1875 37.5625 76.1875 35.49609375 76.28515625 C34.67238281 76.27355469 33.84867187 76.26195312 33 76.25 C31.76056641 76.23646484 31.76056641 76.23646484 30.49609375 76.22265625 C29.53896484 76.20525391 29.53896484 76.20525391 28.5625 76.1875 C27.60754959 73.32264876 27.31482676 71.09410307 27.09765625 68.1015625 C26.98236572 66.58949219 26.98236572 66.58949219 26.86474609 65.046875 C26.78562988 63.97953125 26.70651367 62.9121875 26.625 61.8125 C25.95236817 53.19046603 25.12533954 44.69998768 23.5625 36.1875 C23.35753906 37.47527344 23.15257812 38.76304687 22.94140625 40.08984375 C22.66948348 41.76826363 22.39733649 43.4466472 22.125 45.125 C21.99029297 45.97513672 21.85558594 46.82527344 21.71679688 47.70117188 C21.58466797 48.51005859 21.45253906 49.31894531 21.31640625 50.15234375 C21.13573608 51.27564087 21.13573608 51.27564087 20.95141602 52.42163086 C20.5625 54.1875 20.5625 54.1875 19.5625 55.1875 C19.27926638 56.57382475 19.04902998 57.97110171 18.84375 59.37109375 C18.71613281 60.21607422 18.58851563 61.06105469 18.45703125 61.93164062 C18.32683594 62.82044922 18.19664062 63.70925781 18.0625 64.625 C17.80515918 66.37415321 17.54488048 68.12287746 17.28125 69.87109375 C17.16716797 70.65025146 17.05308594 71.42940918 16.93554688 72.23217773 C16.5625 74.1875 16.5625 74.1875 15.5625 76.1875 C13.2525 76.1875 10.9425 76.1875 8.5625 76.1875 C5.85369584 66.52417736 4.69140822 56.8198613 3.65307617 46.85961914 C3.53939697 45.81281982 3.42571777 44.76602051 3.30859375 43.6875 C3.21247803 42.7490625 3.1163623 41.810625 3.01733398 40.84375 C2.5428608 38.07280624 1.69655937 35.75241995 0.5625 33.1875 C0.48209473 34.02821045 0.40168945 34.8689209 0.31884766 35.73510742 C0.01238425 38.92062189 -0.2974379 42.10578872 -0.609375 45.29077148 C-0.74251107 46.65685634 -0.87439245 48.02306418 -1.00488281 49.3894043 C-1.86428927 58.37681259 -2.95666773 67.28064557 -4.4375 76.1875 C-7.4075 76.1875 -10.3775 76.1875 -13.4375 76.1875 C-13.6417818 68.94684497 -12.85175138 62.14919987 -11.75 55 C-11.38314261 52.542005 -11.01870162 50.08364853 -10.65625 47.625 C-10.55959549 46.97074539 -10.46294098 46.31649078 -10.36335754 45.64241028 C-9.54978081 40.08131184 -8.81296808 34.51151258 -8.09375 28.9375 C-7.9257917 27.63857063 -7.9257917 27.63857063 -7.75444031 26.31340027 C-7.30693344 22.84490359 -6.86081733 19.37625812 -6.42202759 15.90664673 C-6.11432565 13.4750559 -5.80166916 11.04414471 -5.48828125 8.61328125 C-5.39675781 7.87605835 -5.30523437 7.13883545 -5.2109375 6.37927246 C-4.41309066 0.24071404 -4.41309066 0.24071404 0 0 Z " fill="#4A4B4B" transform="translate(343.4375,175.8125)"/>
<path d="M0 0 C1.134375 0.020625 2.26875 0.04125 3.4375 0.0625 C6.43438411 6.27825963 8.58254199 12.52001422 10.57421875 19.10522461 C11.99621904 23.76677418 13.61145673 28.27444221 15.54296875 32.75390625 C16.72300195 35.79931945 17.55341639 38.92008231 18.4375 42.0625 C18.46255615 40.8257251 18.4876123 39.5889502 18.51342773 38.31469727 C18.60732253 33.74313287 18.70758629 29.17172682 18.80981445 24.6003418 C18.85323144 22.61860854 18.89490137 20.63683622 18.93481445 18.6550293 C18.99235383 15.8128683 19.05609445 12.97090517 19.12109375 10.12890625 C19.13780624 9.23724258 19.15451874 8.34557892 19.17173767 7.42689514 C19.32362829 1.17637171 19.32362829 1.17637171 20.4375 0.0625 C23.9375 -0.0625 23.9375 -0.0625 27.4375 0.0625 C29.09915207 1.72415207 28.55709725 3.7276603 28.56192017 5.94651794 C28.55652725 6.99308311 28.55652725 6.99308311 28.55102539 8.06079102 C28.55117142 8.79245483 28.55131744 9.52411865 28.5514679 10.2779541 C28.55076867 12.70746784 28.54297585 15.13690583 28.53515625 17.56640625 C28.5332921 19.24649514 28.53186819 20.92658457 28.53086853 22.60667419 C28.52704307 27.03723643 28.51721256 31.4677661 28.50616455 35.89831543 C28.49595103 40.41592976 28.49137104 44.93354934 28.48632812 49.45117188 C28.47559031 58.32162893 28.45851356 67.19206176 28.4375 76.0625 C25.4675 76.0625 22.4975 76.0625 19.4375 76.0625 C19.10540527 74.99721069 19.10540527 74.99721069 18.76660156 73.91040039 C17.74576043 70.64684248 16.71669222 67.38593349 15.6875 64.125 C15.33945312 63.00802734 14.99140625 61.89105469 14.6328125 60.74023438 C12.83852715 55.07494452 10.96160531 49.60356651 8.35839844 44.25561523 C7.1135602 41.29103891 6.32081857 38.15411501 5.4375 35.0625 C5.1075 48.5925 4.7775 62.1225 4.4375 76.0625 C1.4675 76.0625 -1.5025 76.0625 -4.5625 76.0625 C-4.58562446 66.30099012 -4.60341561 56.5394867 -4.61431217 46.77795506 C-4.61954078 42.24575906 -4.62663801 37.71358173 -4.63793945 33.18139648 C-4.64876914 28.8112717 -4.65477701 24.44116492 -4.65737724 20.07102776 C-4.65923135 18.39999037 -4.66285168 16.72895403 -4.66823006 15.05792427 C-4.67544159 12.72552449 -4.6764909 10.39320007 -4.67602539 8.06079102 C-4.67962067 7.3630809 -4.68321594 6.66537079 -4.68692017 5.94651794 C-4.67417305 0.08200304 -4.67417305 0.08200304 0 0 Z " fill="#4B4B4B" transform="translate(433.5625,175.9375)"/>
<path d="M0 0 C1.134375 0.020625 2.26875 0.04125 3.4375 0.0625 C5.61662013 4.19121563 7.23714812 8.21157747 8.59375 12.67578125 C8.97660156 13.92423828 9.35945312 15.17269531 9.75390625 16.45898438 C10.14867028 17.76425254 10.54320012 19.06959155 10.9375 20.375 C13.70017021 33.57411121 13.70017021 33.57411121 19.4375 45.0625 C19.7675 30.2125 20.0975 15.3625 20.4375 0.0625 C22.7475 0.0625 25.0575 0.0625 27.4375 0.0625 C28.9169228 3.02134561 28.56485706 5.6728184 28.56689453 8.97485352 C28.56864685 9.68554993 28.57039917 10.39624634 28.57220459 11.128479 C28.5766139 13.48281276 28.57368866 15.8370717 28.5703125 18.19140625 C28.57098573 19.82283035 28.57195591 21.45425435 28.57321167 23.0856781 C28.57468733 26.50626581 28.57253802 29.92682743 28.56787109 33.34741211 C28.56216937 37.74160872 28.56545644 42.13574432 28.57144356 46.5299387 C28.57504887 49.89870162 28.5739108 53.26744996 28.57131577 56.6362133 C28.57064665 58.25700831 28.5714744 59.87780462 28.57379532 61.4985981 C28.57632185 63.75894834 28.57248149 66.01919828 28.56689453 68.27954102 C28.56609894 69.56812515 28.56530334 70.85670929 28.56448364 72.18434143 C28.4375 75.0625 28.4375 75.0625 27.4375 76.0625 C25.10452567 76.10342937 22.77044775 76.10491723 20.4375 76.0625 C15.39342298 66.26053473 12.18529385 56.29693998 9.23364258 45.71386719 C8.05845116 41.80016624 6.74352202 37.93419318 5.4375 34.0625 C5.41244385 35.2992749 5.3873877 36.5360498 5.36157227 37.81030273 C5.26767747 42.38186713 5.16741371 46.95327318 5.06518555 51.5246582 C5.02176856 53.50639146 4.98009863 55.48816378 4.94018555 57.4699707 C4.88264617 60.3121317 4.81890555 63.15409483 4.75390625 65.99609375 C4.73719376 66.88775742 4.72048126 67.77942108 4.70326233 68.69810486 C4.55137171 74.94862829 4.55137171 74.94862829 3.4375 76.0625 C0.76691149 76.20365161 -1.88682238 76.10497107 -4.5625 76.0625 C-4.58562446 66.30099012 -4.60341561 56.5394867 -4.61431217 46.77795506 C-4.61954078 42.24575906 -4.62663801 37.71358173 -4.63793945 33.18139648 C-4.64876914 28.8112717 -4.65477701 24.44116492 -4.65737724 20.07102776 C-4.65923135 18.39999037 -4.66285168 16.72895403 -4.66823006 15.05792427 C-4.67544159 12.72552449 -4.6764909 10.39320007 -4.67602539 8.06079102 C-4.67962067 7.3630809 -4.68321594 6.66537079 -4.68692017 5.94651794 C-4.67417305 0.08200304 -4.67417305 0.08200304 0 0 Z " fill="#4B4B4B" transform="translate(690.5625,175.9375)"/>
<path d="M0 0 C6.27 0 12.54 0 19 0 C19 26.73 19 53.46 19 81 C12.73 81 6.46 81 0 81 C0 54.27 0 27.54 0 0 Z " fill="#007BFE" transform="translate(744,58)"/>
<path d="M0 0 C2.875 2.1875 2.875 2.1875 5 5 C5.763125 5.99 6.52625 6.98 7.3125 8 C9.03765238 11.06693757 9.40461105 12.56080603 9 16 C7.71211992 16.53012738 6.41953322 17.0488329 5.125 17.5625 C4.40570312 17.85253906 3.68640625 18.14257812 2.9453125 18.44140625 C1 19 1 19 -1 18 C-1.6496875 16.2675 -1.6496875 16.2675 -2.3125 14.5 C-3.59362082 10.83627844 -3.59362082 10.83627844 -6.5 10 C-9.13176157 9.86823843 -9.13176157 9.86823843 -12 11 C-18.98776808 27.78258829 -16.56480749 48.97527771 -12 66 C-9.03 66 -6.06 66 -3 66 C-2.24884679 62.99538715 -1.83472225 60.694445 -1.68359375 57.671875 C-1.64169922 56.87265625 -1.59980469 56.0734375 -1.55664062 55.25 C-1.51732422 54.425 -1.47800781 53.6 -1.4375 52.75 C-1.39431641 51.90953125 -1.35113281 51.0690625 -1.30664062 50.203125 C-1.20091457 48.13559329 -1.09998705 46.06781719 -1 44 C-1.63808594 44.01160156 -2.27617188 44.02320313 -2.93359375 44.03515625 C-3.75988281 44.04417969 -4.58617187 44.05320313 -5.4375 44.0625 C-6.67306641 44.07990234 -6.67306641 44.07990234 -7.93359375 44.09765625 C-10 44 -10 44 -11 43 C-11.1875 39.5625 -11.1875 39.5625 -11 36 C-9 34 -9 34 -5.12109375 33.76953125 C-3.55983524 33.77352424 -1.99857586 33.78828739 -0.4375 33.8125 C0.35591797 33.81314453 1.14933594 33.81378906 1.96679688 33.81445312 C7.85974478 33.85974478 7.85974478 33.85974478 9 35 C9.31312339 39.30469075 9.27870377 43.62284768 9.3125 47.9375 C9.34150391 49.13697266 9.37050781 50.33644531 9.40039062 51.57226562 C9.45712474 59.57177595 8.97277542 67.48965431 3.4465332 73.76367188 C0.12386581 76.76111458 -3.0975258 77.36321104 -7.5 77.5625 C-12.83279361 77.27720651 -15.84667366 76.39047049 -20 73 C-23.38645802 67.94620332 -25.10528643 62.73935645 -25.16113281 56.66552734 C-25.17554413 55.39302628 -25.17554413 55.39302628 -25.19024658 54.09481812 C-25.19449646 53.18438751 -25.19874634 52.27395691 -25.203125 51.3359375 C-25.20882507 50.38868805 -25.21452515 49.4414386 -25.22039795 48.46548462 C-25.22983827 46.45991122 -25.23637809 44.45432238 -25.24023438 42.44873047 C-25.24989851 39.40694402 -25.28091407 36.36584553 -25.3125 33.32421875 C-25.31903486 31.36979565 -25.32428343 29.41536775 -25.328125 27.4609375 C-25.3404718 26.56265228 -25.3528186 25.66436707 -25.36553955 24.73886108 C-25.34102852 17.65574962 -24.52692549 10.28448426 -20.09765625 4.52734375 C-19.09025391 3.74037109 -19.09025391 3.74037109 -18.0625 2.9375 C-17.39347656 2.38964844 -16.72445312 1.84179688 -16.03515625 1.27734375 C-11.04321098 -1.85579656 -5.57144352 -1.31359237 0 0 Z " fill="#4B4C4C" transform="translate(537,176)"/>
<path d="M0 0 C1.670625 0.061875 1.670625 0.061875 3.375 0.125 C5.00178638 3.05590439 5.74704454 5.56986409 6.25 8.875 C7.0253997 13.47287791 8.06588582 17.92769014 9.25 22.4375 C11.65026172 31.69645612 13.2601439 41.07971155 14.90478516 50.49658203 C15.3436422 52.94971541 15.8098666 55.39508571 16.29296875 57.83984375 C16.43404053 58.55849609 16.5751123 59.27714844 16.72045898 60.01757812 C17.09629963 61.91742197 17.47761182 63.81618115 17.859375 65.71484375 C18.39184617 69.23641447 18.46583094 72.56896858 18.375 76.125 C16.89593108 76.15189216 15.41672517 76.17134621 13.9375 76.1875 C12.70193359 76.20490234 12.70193359 76.20490234 11.44140625 76.22265625 C9.375 76.125 9.375 76.125 8.375 75.125 C8.00411153 73.50815806 7.67756403 71.88100923 7.375 70.25 C6.84837663 67.42762787 6.2849394 64.85481821 5.375 62.125 C1.745 62.125 -1.885 62.125 -5.625 62.125 C-5.75777344 62.96804687 -5.89054687 63.81109375 -6.02734375 64.6796875 C-6.20394531 65.77539062 -6.38054687 66.87109375 -6.5625 68 C-6.73652344 69.09054688 -6.91054688 70.18109375 -7.08984375 71.3046875 C-7.625 74.125 -7.625 74.125 -8.625 76.125 C-11.925 76.125 -15.225 76.125 -18.625 76.125 C-18.83771533 70.28868508 -18.03232052 64.93704895 -16.9453125 59.2109375 C-16.77248749 58.27827057 -16.59966248 57.34560364 -16.42160034 56.38467407 C-16.05642076 54.42254488 -15.68812851 52.46099271 -15.31689453 50.5 C-14.75078419 47.50414995 -14.19697102 44.50621006 -13.64453125 41.5078125 C-13.2871895 39.59621734 -12.92914065 37.6847542 -12.5703125 35.7734375 C-12.40564484 34.8806308 -12.24097717 33.9878241 -12.07131958 33.06796265 C-11.26651346 28.85358267 -10.30848374 25.08814589 -8.625 21.125 C-8.31226031 19.61012657 -8.05123872 18.08362047 -7.84375 16.55078125 C-7.66392578 15.30264648 -7.66392578 15.30264648 -7.48046875 14.02929688 C-7.24191192 12.28992919 -7.00495329 10.55034162 -6.76953125 8.81054688 C-6.58970703 7.56821289 -6.58970703 7.56821289 -6.40625 6.30078125 C-6.2525293 5.17023315 -6.2525293 5.17023315 -6.09570312 4.0168457 C-5.15307656 0.22824962 -3.75970524 0.12964501 0 0 Z M-0.625 27.125 C-2.44297654 32.75461642 -3.20450105 38.1827367 -3.75 44.0625 C-3.83636719 44.93712891 -3.92273438 45.81175781 -4.01171875 46.71289062 C-4.22189697 48.84970254 -4.42425518 50.98728122 -4.625 53.125 C-1.655 53.125 1.315 53.125 4.375 53.125 C3.89756627 49.72891482 3.41811976 46.33313448 2.9375 42.9375 C2.80279297 41.97779297 2.66808594 41.01808594 2.52929688 40.02929688 C2.39716797 39.09794922 2.26503906 38.16660156 2.12890625 37.20703125 C1.94823608 35.92662964 1.94823608 35.92662964 1.76391602 34.62036133 C1.37177852 32.10433036 0.89234627 29.61802336 0.375 27.125 C0.045 27.125 -0.285 27.125 -0.625 27.125 Z " fill="#4A4B4B" transform="translate(487.625,175.875)"/>
<path d="M0 0 C1.134375 0.020625 2.26875 0.04125 3.4375 0.0625 C5.77660628 5.14400674 6.43258917 10.34993552 7.29296875 15.82421875 C7.95424476 19.84164825 8.83799353 23.29673279 10.4375 27.0625 C12.92189166 36.64515354 14.42846781 46.4893212 16.07958984 56.24169922 C16.24152832 57.1957666 16.4034668 58.14983398 16.5703125 59.1328125 C16.71355957 59.98633301 16.85680664 60.83985352 17.00439453 61.71923828 C17.2844683 63.23454155 17.60893525 64.74259011 17.9855957 66.23681641 C18.78851421 69.48058983 18.49293389 72.73646665 18.4375 76.0625 C16.97957116 76.11649736 15.52107288 76.15529177 14.0625 76.1875 C13.25039063 76.21070313 12.43828125 76.23390625 11.6015625 76.2578125 C9.4375 76.0625 9.4375 76.0625 7.4375 74.0625 C6.8046875 71.2421875 6.8046875 71.2421875 6.3125 67.9375 C6.14492188 66.84179688 5.97734375 65.74609375 5.8046875 64.6171875 C5.68351562 63.77414063 5.56234375 62.93109375 5.4375 62.0625 C1.8075 62.0625 -1.8225 62.0625 -5.5625 62.0625 C-7.14766884 66.39529483 -7.93640321 70.50093766 -8.5625 75.0625 C-9.5625 76.0625 -9.5625 76.0625 -11.62890625 76.16015625 C-12.86447266 76.14275391 -12.86447266 76.14275391 -14.125 76.125 C-15.36443359 76.11146484 -15.36443359 76.11146484 -16.62890625 76.09765625 C-17.58603516 76.08025391 -17.58603516 76.08025391 -18.5625 76.0625 C-18.68106544 71.2396877 -18.30176001 66.88701733 -17.35546875 62.16015625 C-17.23035919 61.52487 -17.10524963 60.88958374 -16.97634888 60.23504639 C-16.57369119 58.19709145 -16.16198785 56.16108715 -15.75 54.125 C-15.47027658 52.71912742 -15.19122612 51.31312078 -14.9128418 49.90698242 C-14.50186527 47.83181138 -14.09040428 45.75675151 -13.67628479 43.6822052 C-12.69322446 38.75478246 -11.7682147 33.81931024 -10.875 28.875 C-9.86729318 23.44523857 -8.64806352 18.108678 -7.25390625 12.765625 C-6.58380214 10.14578294 -5.99893584 7.51998662 -5.4375 4.875 C-4.3361067 0.07607205 -4.3361067 0.07607205 0 0 Z M-0.5625 27.0625 C-2.15451668 32.89543507 -3.09031525 38.55149279 -3.6875 44.5625 C-3.77386719 45.38492188 -3.86023438 46.20734375 -3.94921875 47.0546875 C-4.15873852 49.05676526 -4.36135044 51.05956397 -4.5625 53.0625 C-1.5925 53.0625 1.3775 53.0625 4.4375 53.0625 C3.05444929 39.96070519 3.05444929 39.96070519 0.4375 27.0625 C0.1075 27.0625 -0.2225 27.0625 -0.5625 27.0625 Z " fill="#4B4B4B" transform="translate(403.5625,175.9375)"/>
<path d="M0 0 C1.875 1.5625 1.875 1.5625 2.875 3.5625 C2.94450541 5.10273996 2.95952357 6.64584988 2.9375 8.1875 C2.92847656 9.00476563 2.91945313 9.82203125 2.91015625 10.6640625 C2.89855469 11.29054687 2.88695312 11.91703125 2.875 12.5625 C-0.11947142 12.13471837 -1.9760967 11.66438121 -4.5 9.9375 C-8.1281133 8.0370597 -10.23507205 8.48196446 -14.125 9.5625 C-16.24170357 11.02291766 -16.24170357 11.02291766 -17.125 13.5625 C-17.65714766 19.15005041 -17.47066884 21.91967566 -14.125 26.5625 C-12.19525391 28.32181267 -10.29532027 29.95438578 -8.25 31.5625 C-3.32595886 35.51160568 1.35093541 39.27640311 4.875 44.5625 C6.59223379 62.83748277 6.59223379 62.83748277 1.4765625 69.08203125 C-3.27517984 73.47449551 -7.00083231 75.84058283 -13.625 76.125 C-18.99409739 75.89286329 -22.55912437 74.3192551 -27.125 71.5625 C-27.125 67.9325 -27.125 64.3025 -27.125 60.5625 C-23.125 60.5625 -23.125 60.5625 -21.3125 62 C-18.24939211 64.18793421 -15.8578 64.43152456 -12.125 64.5625 C-9.34192394 63.22707328 -9.34192394 63.22707328 -7.125 61.5625 C-6.465 61.5625 -5.805 61.5625 -5.125 61.5625 C-5.09794271 59.79175083 -5.07857805 58.02088289 -5.0625 56.25 C-5.05089844 55.26386719 -5.03929687 54.27773437 -5.02734375 53.26171875 C-5.00170138 50.46286151 -5.00170138 50.46286151 -6.125 47.5625 C-7.53136242 46.26117767 -7.53136242 46.26117767 -9.29296875 45.109375 C-9.93943359 44.65433594 -10.58589844 44.19929688 -11.25195312 43.73046875 C-12.60510042 42.79929819 -13.95923735 41.86956379 -15.31445312 40.94140625 C-20.78999888 37.08203836 -25.83945326 33.03806744 -28.21875 26.60546875 C-29.3386368 18.7339567 -29.68032355 11.61577184 -25.3125 4.6875 C-17.74810882 -2.66076571 -9.99506675 -4.5977307 0 0 Z " fill="#4B4C4C" transform="translate(814.125,177.4375)"/>
<path d="M0 0 C2.89123966 3.27673828 2.24252039 6.60047933 2.05078125 10.82421875 C1.99277344 11.58347656 1.93476562 12.34273437 1.875 13.125 C-0.71954779 12.56001391 -2.28304341 12.02369012 -4.5625 10.5625 C-7.45764252 8.93839566 -8.86362292 8.62324968 -12.125 9.125 C-14.52830166 9.92612077 -14.52830166 9.92612077 -16.125 12.125 C-17.48157098 17.22688651 -17.64337686 21.3840797 -15.125 26.125 C-12.98430256 28.1302386 -12.98430256 28.1302386 -10.5 29.8125 C-9.00946816 30.87279947 -7.54162024 31.96780199 -6.125 33.125 C-6.125 33.785 -6.125 34.445 -6.125 35.125 C-5.073125 35.4034375 -5.073125 35.4034375 -4 35.6875 C0.54666784 37.96083392 3.93891631 41.65106453 5.75 46.4375 C5.79125 47.324375 5.8325 48.21125 5.875 49.125 C5.92398438 49.8675 5.97296875 50.61 6.0234375 51.375 C6.31448592 58.71837556 5.0585606 64.53460753 0.5625 70.4375 C-3.8801309 74.8801309 -7.34354066 76.29582076 -13.5625 76.5 C-18.45393952 76.3797187 -21.82995382 75.4156913 -26.125 73.125 C-26.125 68.835 -26.125 64.545 -26.125 60.125 C-21.125 62.125 -21.125 62.125 -18.1875 63.8125 C-14.52813083 65.38080107 -12.8855064 65.35125209 -9.125 64.125 C-5.96270554 61.90284713 -5.22788943 60.49540194 -4.1875 56.75 C-4.11396489 52.48496379 -4.9155879 50.74250702 -7.125 47.125 C-9.78483783 44.74335556 -9.78483783 44.74335556 -12.875 42.6875 C-25.81999792 33.37838527 -25.81999792 33.37838527 -28.125 27.125 C-29.47005429 12.53272498 -29.47005429 12.53272498 -26.4375 6.75 C-24.06967719 4.06220114 -22.57429302 2.98732326 -19.125 2.125 C-19.125 1.465 -19.125 0.805 -19.125 0.125 C-12.63124388 -2.78010142 -6.65711867 -1.86399323 0 0 Z " fill="#4B4B4B" transform="translate(896.125,176.875)"/>
<path d="M0 0 C1.07507813 -0.00128906 2.15015625 -0.00257813 3.2578125 -0.00390625 C4.38960937 -0.00003906 5.52140625 0.00382813 6.6875 0.0078125 C7.81929687 0.00394531 8.95109375 0.00007812 10.1171875 -0.00390625 C11.19226563 -0.00261719 12.26734375 -0.00132812 13.375 0 C14.86580078 0.00169189 14.86580078 0.00169189 16.38671875 0.00341797 C18.6875 0.1328125 18.6875 0.1328125 19.6875 1.1328125 C19.82943337 4.13612268 19.72986378 7.12498384 19.6875 10.1328125 C14.4075 10.1328125 9.1275 10.1328125 3.6875 10.1328125 C3.6875 17.3928125 3.6875 24.6528125 3.6875 32.1328125 C8.57903471 32.0932446 8.57903471 32.0932446 13.47045898 32.04272461 C15.20971717 32.03556337 16.94895304 32.08256548 18.6875 32.1328125 C19.6875 33.1328125 19.6875 33.1328125 19.78515625 34.98046875 C19.75260417 37.03125 19.72005208 39.08203125 19.6875 41.1328125 C15.22544887 43.36383806 8.46842876 42.17627549 3.6875 42.1328125 C3.6875 50.0528125 3.6875 57.9728125 3.6875 66.1328125 C8.57903471 66.0932446 8.57903471 66.0932446 13.47045898 66.04272461 C15.20971717 66.03556337 16.94895304 66.08256548 18.6875 66.1328125 C19.6875 67.1328125 19.6875 67.1328125 19.6875 76.1328125 C11.1075 76.1328125 2.5275 76.1328125 -6.3125 76.1328125 C-6.33505193 66.3712985 -6.35341561 56.60980167 -6.36431217 46.84826756 C-6.36954078 42.31607156 -6.37663801 37.78389423 -6.38793945 33.25170898 C-6.39876914 28.8815842 -6.40477701 24.51147742 -6.40737724 20.14134026 C-6.40923135 18.47030287 -6.41285168 16.79926653 -6.41823006 15.12823677 C-6.42544159 12.79583699 -6.4264909 10.46351257 -6.42602539 8.13110352 C-6.42962067 7.4333934 -6.43321594 6.73568329 -6.43692017 6.01683044 C-6.42395161 0.05043875 -5.83068844 0.00661719 0 0 Z " fill="#4A4A4A" transform="translate(562.3125,175.8671875)"/>
<path d="M0 0 C1.00023193 0.00523682 2.00046387 0.01047363 3.03100586 0.01586914 C4.1105957 0.0190918 5.19018555 0.02231445 6.30249023 0.02563477 C8.00695312 0.03820312 8.00695312 0.03820312 9.74584961 0.05102539 C11.45611328 0.05779297 11.45611328 0.05779297 13.20092773 0.06469727 C16.02845312 0.07652792 18.85587601 0.09301129 21.68334961 0.11352539 C22.68334961 2.11352539 22.68334961 2.11352539 22.68334961 10.11352539 C17.40334961 10.11352539 12.12334961 10.11352539 6.68334961 10.11352539 C6.68334961 17.37352539 6.68334961 24.63352539 6.68334961 32.11352539 C11.63334961 32.11352539 16.58334961 32.11352539 21.68334961 32.11352539 C21.78100586 39.04711914 21.78100586 39.04711914 21.68334961 41.11352539 C20.68334961 42.11352539 20.68334961 42.11352539 17.52319336 42.21118164 C12.10327148 42.16235352 12.10327148 42.16235352 6.68334961 42.11352539 C6.68334961 50.03352539 6.68334961 57.95352539 6.68334961 66.11352539 C11.57488432 66.07395749 11.57488432 66.07395749 16.46630859 66.0234375 C18.20556678 66.01627626 19.94480265 66.06327837 21.68334961 66.11352539 C22.68334961 67.11352539 22.68334961 67.11352539 22.81616211 68.92602539 C22.81358398 69.64790039 22.81100586 70.36977539 22.80834961 71.11352539 C22.8122168 72.19633789 22.8122168 72.19633789 22.81616211 73.30102539 C22.68334961 75.11352539 22.68334961 75.11352539 21.68334961 76.11352539 C19.8296535 76.20090184 17.9726742 76.22050692 16.11694336 76.21118164 C14.99223633 76.20795898 13.8675293 76.20473633 12.70874023 76.20141602 C11.52473633 76.19303711 10.34073242 76.1846582 9.12084961 76.17602539 C7.93297852 76.17151367 6.74510742 76.16700195 5.52124023 76.16235352 C2.57522735 76.15052214 -0.3706872 76.13403826 -3.31665039 76.11352539 C-3.33977485 66.35201551 -3.357566 56.59051209 -3.36846256 46.82898045 C-3.37369117 42.29678445 -3.3807884 37.76460712 -3.39208984 33.23242188 C-3.40291953 28.86229709 -3.4089274 24.49219031 -3.41152763 20.12205315 C-3.41338174 18.45101576 -3.41700207 16.77997942 -3.42238045 15.10894966 C-3.42959198 12.77654988 -3.43064129 10.44422546 -3.43017578 8.11181641 C-3.43377106 7.41410629 -3.43736633 6.71639618 -3.44107056 5.99754333 C-3.42839946 0.16800566 -3.42839946 0.16800566 0 0 Z " fill="#4A4B4B" transform="translate(948.316650390625,175.886474609375)"/>
<path d="M0 0 C1.02996094 -0.00128906 2.05992187 -0.00257813 3.12109375 -0.00390625 C4.74724609 0.00189453 4.74724609 0.00189453 6.40625 0.0078125 C7.49035156 0.00394531 8.57445312 0.00007812 9.69140625 -0.00390625 C10.72136719 -0.00261719 11.75132812 -0.00132812 12.8125 0 C14.24045898 0.00169189 14.24045898 0.00169189 15.69726562 0.00341797 C17.90625 0.1328125 17.90625 0.1328125 18.90625 1.1328125 C19.04818337 4.13612268 18.94861378 7.12498384 18.90625 10.1328125 C13.62625 10.1328125 8.34625 10.1328125 2.90625 10.1328125 C2.90625 17.3928125 2.90625 24.6528125 2.90625 32.1328125 C7.79778471 32.0932446 7.79778471 32.0932446 12.68920898 32.04272461 C14.42846717 32.03556337 16.16770304 32.08256548 17.90625 32.1328125 C18.90625 33.1328125 18.90625 33.1328125 19.0390625 34.9453125 C19.03648437 35.6671875 19.03390625 36.3890625 19.03125 37.1328125 C19.03511719 38.215625 19.03511719 38.215625 19.0390625 39.3203125 C18.90625 41.1328125 18.90625 41.1328125 17.90625 42.1328125 C15.3734735 42.20601413 12.87521082 42.22508819 10.34375 42.1953125 C7.889375 42.1746875 5.435 42.1540625 2.90625 42.1328125 C2.90625 50.0528125 2.90625 57.9728125 2.90625 66.1328125 C8.18625 66.1328125 13.46625 66.1328125 18.90625 66.1328125 C18.90625 69.4328125 18.90625 72.7328125 18.90625 76.1328125 C10.65625 76.1328125 2.40625 76.1328125 -6.09375 76.1328125 C-6.11630193 66.3712985 -6.13466561 56.60980167 -6.14556217 46.84826756 C-6.15079078 42.31607156 -6.15788801 37.78389423 -6.16918945 33.25170898 C-6.18001914 28.8815842 -6.18602701 24.51147742 -6.18862724 20.14134026 C-6.19048135 18.47030287 -6.19410168 16.79926653 -6.19948006 15.12823677 C-6.20669159 12.79583699 -6.2077409 10.46351257 -6.20727539 8.13110352 C-6.21087067 7.4333934 -6.21446594 6.73568329 -6.21817017 6.01683044 C-6.20548223 0.17954166 -5.72290107 0.00678069 0 0 Z " fill="#4B4B4B" transform="translate(656.09375,175.8671875)"/>
<path d="M0 0 C2.97 0 5.94 0 9 0 C9.31453125 0.95519531 9.6290625 1.91039062 9.953125 2.89453125 C12.51466771 10.6434743 15.16513644 18.34577916 18 26 C18.30236572 25.03175293 18.30236572 25.03175293 18.61083984 24.04394531 C19.52873705 21.1115247 20.451811 18.18075873 21.375 15.25 C21.69210937 14.23421875 22.00921875 13.2184375 22.3359375 12.171875 C22.6453125 11.1921875 22.9546875 10.2125 23.2734375 9.203125 C23.69761963 7.85202637 23.69761963 7.85202637 24.13037109 6.47363281 C24.93065915 4.19723792 25.86704606 2.12700166 27 0 C28.27875 -0.061875 29.5575 -0.12375 30.875 -0.1875 C31.95394531 -0.23970703 31.95394531 -0.23970703 33.0546875 -0.29296875 C33.69664062 -0.19628906 34.33859375 -0.09960938 35 0 C37 3 37 3 36.6796875 4.875 C36.41414062 5.57625 36.14859375 6.2775 35.875 7 C35.58318848 7.7935791 35.29137695 8.5871582 34.99072266 9.40478516 C34.66378418 10.26120605 34.3368457 11.11762695 34 12 C33.34032082 13.84085039 32.68148387 15.6820028 32.0234375 17.5234375 C30.8192668 20.82830636 29.55959046 24.09691648 28.2265625 27.3515625 C22.20387901 42.93915696 22.98002297 59.52037878 23 76 C21.52093108 76.02689216 20.04172517 76.04634621 18.5625 76.0625 C17.32693359 76.07990234 17.32693359 76.07990234 16.06640625 76.09765625 C14 76 14 76 13 75 C12.90192701 72.73861939 12.8679111 70.47442766 12.859375 68.2109375 C12.84099906 66.77863055 12.82142458 65.34633857 12.80078125 63.9140625 C12.77220553 61.66772057 12.75001051 59.42231473 12.74951172 57.17578125 C12.73210007 46.09202124 11.01390454 37.35436796 7 27 C6.31805948 25.05382985 5.6440979 23.10483382 4.98046875 21.15234375 C4.0753837 18.51883822 3.16944364 15.88624684 2.24414062 13.25976562 C0.68746323 8.69237151 -0.41025075 4.89887655 0 0 Z " fill="#4A4B4B" transform="translate(826,176)"/>
<path d="M0 0 C1.35476979 0.00373811 2.70954232 0.0065813 4.0643158 0.00857544 C7.60049123 0.01614918 11.13649789 0.03574246 14.67260742 0.0579834 C18.29278278 0.07857807 21.91298586 0.08760605 25.53320312 0.09765625 C32.61465829 0.11899544 39.69597212 0.15412516 46.77734375 0.1953125 C46.77734375 6.4653125 46.77734375 12.7353125 46.77734375 19.1953125 C45.0715918 19.22036865 43.36583984 19.2454248 41.60839844 19.27124023 C35.96852215 19.35518345 30.32872454 19.44344765 24.68896103 19.53465176 C21.27004903 19.58978321 17.85112833 19.64318727 14.43212891 19.69262695 C10.50023762 19.74955926 6.56848739 19.81403487 2.63671875 19.87890625 C1.41055847 19.89561874 0.18439819 19.91233124 -1.07891846 19.92955017 C-2.79023956 19.959468 -2.79023956 19.959468 -4.53613281 19.98999023 C-5.53984924 20.00553452 -6.54356567 20.0210788 -7.57769775 20.03709412 C-9.98646271 20.18118367 -11.97754114 20.31096782 -14.22265625 21.1953125 C-15.52722185 24.19147196 -15.52722185 24.19147196 -16.22265625 27.1953125 C-11.16097231 31.20975149 -6.99816426 31.33876514 -0.71484375 31.37109375 C1.01173074 31.39430724 2.73829326 31.41842518 4.46484375 31.44335938 C7.17683752 31.47833549 9.88839504 31.50774308 12.60058594 31.52124023 C15.22514504 31.53684546 17.84843761 31.57714586 20.47265625 31.62109375 C21.26987091 31.61918533 22.06708557 31.61727692 22.88845825 31.61531067 C30.39939073 31.77607759 36.92319623 33.961523 42.21484375 39.4453125 C47.7783157 46.71943649 47.39158152 55.67048483 46.5703125 64.39453125 C45.53772537 70.17021089 42.26914499 74.50532642 37.77734375 78.1953125 C32.88459706 80.62461945 29.37681737 81.5673322 23.83227539 81.53588867 C23.17776398 81.53632675 22.52325256 81.53676483 21.84890747 81.53721619 C19.71145522 81.53514624 17.57481314 81.51190263 15.4375 81.48828125 C13.94535246 81.48267886 12.45319936 81.4784118 10.96104431 81.47541809 C7.05321747 81.46401983 3.14573058 81.43459673 -0.76196289 81.40130615 C-4.75727745 81.37049631 -8.75264749 81.35688954 -12.74804688 81.34179688 C-20.57308884 81.30972141 -28.3977814 81.25699543 -36.22265625 81.1953125 C-36.22265625 75.2553125 -36.22265625 69.3153125 -36.22265625 63.1953125 C-34.52214111 63.17549316 -32.82162598 63.15567383 -31.06958008 63.13525391 C-25.44162555 63.06739412 -19.81383975 62.99061206 -14.1860857 62.90778542 C-10.77505854 62.85790846 -7.36406105 62.81157809 -3.95288086 62.7734375 C-0.02830755 62.72939945 3.89595566 62.66978331 7.8203125 62.609375 C9.04131149 62.59782379 10.26231049 62.58627258 11.52030945 62.57437134 C12.66111465 62.55450165 13.80191986 62.53463196 14.97729492 62.51416016 C15.97879074 62.50083649 16.98028656 62.48751282 18.01213074 62.4737854 C20.96902309 62.17600928 23.1385014 61.55603348 25.77734375 60.1953125 C26.85759033 57.79421033 26.85759033 57.79421033 26.77734375 55.1953125 C26.11734375 54.2053125 25.45734375 53.2153125 24.77734375 52.1953125 C22.2140855 51.88082227 19.87999014 51.75431881 17.3125 51.75390625 C16.56455673 51.74069839 15.81661346 51.72749054 15.04600525 51.71388245 C12.64391547 51.67291832 10.24220368 51.65134217 7.83984375 51.6328125 C-21.12629425 51.33974682 -21.12629425 51.33974682 -30.22265625 44.1953125 C-35.5400478 38.13771588 -36.49805327 29.88684269 -36.09765625 22.1328125 C-35.25990729 14.7248526 -33.34894041 9.63810973 -27.53515625 4.8203125 C-19.8609656 -1.0626859 -9.1209744 -0.07310788 0 0 Z M-29.28515625 9.0703125 C-34.14763114 16.91301393 -34.3468414 25.71591808 -32.79296875 34.671875 C-31.11672196 40.03172586 -27.84518432 43.17248954 -23.22265625 46.1953125 C-13.84050332 50.44977362 -3.73396348 49.66045736 6.36279297 49.70654297 C8.75386139 49.72232086 11.14428443 49.75531979 13.53515625 49.7890625 C14.6197966 49.78453064 14.6197966 49.78453064 15.72634888 49.77990723 C20.84014188 49.85471669 24.27707943 50.97205089 28.77734375 53.1953125 C29.15234375 56.4453125 29.15234375 56.4453125 28.77734375 60.1953125 C23.41522564 65.49731454 17.1128714 64.79730777 9.94140625 64.8046875 C8.70691742 64.82122375 7.47242859 64.83776001 6.20053101 64.85479736 C2.26775131 64.90328066 -1.66464163 64.92465036 -5.59765625 64.9453125 C-8.2682877 64.9712763 -10.93880098 65.00339878 -13.609375 65.03515625 C-20.14710359 65.1090406 -26.68461743 65.15861394 -33.22265625 65.1953125 C-33.22265625 69.8153125 -33.22265625 74.4353125 -33.22265625 79.1953125 C-24.98171215 79.2631922 -16.74098681 79.31818818 -8.49983788 79.35074902 C-4.67280025 79.36637958 -0.84596446 79.38756968 2.98095703 79.42163086 C6.67680205 79.45431812 10.3724534 79.47218513 14.06843185 79.47994423 C15.47579368 79.48547101 16.88314536 79.49626351 18.29042435 79.51250267 C20.26724081 79.53439885 22.24425371 79.53553894 24.22119141 79.53588867 C25.90663559 79.54588142 25.90663559 79.54588142 27.62612915 79.55607605 C33.79023594 78.85038465 37.80823907 75.80805577 41.77734375 71.1953125 C44.57112927 66.57274467 45.29411315 62.63828243 45.21484375 57.3203125 C45.20727051 56.61285889 45.19969727 55.90540527 45.19189453 55.17651367 C44.95634133 47.71876187 43.1262197 43.77334708 38.21484375 38.3828125 C28.24449787 31.07895447 13.97030046 32.75170984 2.28295898 32.75952148 C-0.18678832 32.75595901 -2.6554466 32.72868814 -5.125 32.69921875 C-5.87917709 32.70740128 -6.63335419 32.7155838 -7.41038513 32.72401428 C-10.89765299 32.67437089 -12.86238577 32.4641716 -15.69360352 30.35131836 C-17.22265625 28.1953125 -17.22265625 28.1953125 -17.78515625 25.1953125 C-17.22265625 22.1953125 -17.22265625 22.1953125 -15.05000305 20.04193115 C-11.8388983 17.94466953 -10.21611276 17.68305934 -6.42260742 17.64941406 C-4.71139961 17.61983612 -4.71139961 17.61983612 -2.96562195 17.58966064 C-1.74462296 17.58843201 -0.52362396 17.58720337 0.734375 17.5859375 C1.99247482 17.56940125 3.25057465 17.55286499 4.54679871 17.53582764 C7.87930466 17.49552753 11.21104718 17.47217714 14.54370117 17.45709229 C17.94921343 17.43748651 21.35444332 17.39552064 24.75976562 17.35546875 C31.43226048 17.28151977 38.10454409 17.23198492 44.77734375 17.1953125 C44.77734375 12.2453125 44.77734375 7.2953125 44.77734375 2.1953125 C37.14436184 2.10446447 29.51158531 2.0312838 21.87819195 1.98806381 C18.33256924 1.96730631 14.78733981 1.93921019 11.24194336 1.89355469 C7.15344759 1.84124295 3.0653563 1.82226974 -1.0234375 1.8046875 C-2.90691643 1.77371979 -2.90691643 1.77371979 -4.82844543 1.74212646 C-13.35909489 1.73997944 -23.17472996 2.3000283 -29.28515625 9.0703125 Z " fill="#128EFB" transform="translate(572.22265625,57.8046875)"/>
<path d="M0 0 C1.918125 0.433125 1.918125 0.433125 3.875 0.875 C8.06123207 1.80527379 12.25687486 2.67010913 16.46484375 3.49609375 C18.14696185 3.83044388 19.8267593 4.17670206 21.50390625 4.53515625 C27.31860465 5.76361366 33.07693778 6.52111412 39 7 C39 8.32 39 9.64 39 11 C36.36 11 33.72 11 31 11 C31 15.95 31 20.9 31 26 C28.03 26.495 28.03 26.495 25 27 C24.67 28.32 24.34 29.64 24 31 C13.44 31 2.88 31 -8 31 C-8 24.4 -8 17.8 -8 11 C-5.36 11 -2.72 11 0 11 C0 7.37 0 3.74 0 0 Z " fill="#0E0E0E" transform="translate(96,269)"/>
<path d="M0 0 C1.30066406 -0.00128906 2.60132813 -0.00257813 3.94140625 -0.00390625 C4.96258545 -0.00076416 4.96258545 -0.00076416 6.00439453 0.00244141 C8.08503515 0.0077901 10.16545989 0.0024957 12.24609375 -0.00390625 C14.19708984 -0.00197266 14.19708984 -0.00197266 16.1875 0 C17.39083984 0.00112793 18.59417969 0.00225586 19.83398438 0.00341797 C22.59375 0.1328125 22.59375 0.1328125 23.59375 1.1328125 C23.7265625 2.9453125 23.7265625 2.9453125 23.71875 5.1328125 C23.72261719 6.215625 23.72261719 6.215625 23.7265625 7.3203125 C23.59375 9.1328125 23.59375 9.1328125 22.59375 10.1328125 C19.29375 10.1328125 15.99375 10.1328125 12.59375 10.1328125 C12.59375 31.9128125 12.59375 53.6928125 12.59375 76.1328125 C9.29375 76.1328125 5.99375 76.1328125 2.59375 76.1328125 C2.59375 54.3528125 2.59375 32.5728125 2.59375 10.1328125 C-0.70625 10.1328125 -4.00625 10.1328125 -7.40625 10.1328125 C-7.50390625 3.19921875 -7.50390625 3.19921875 -7.40625 1.1328125 C-5.54910943 -0.72432807 -2.48117951 0.00232569 0 0 Z " fill="#4B4B4B" transform="translate(914.40625,175.8671875)"/>
<path d="M0 0 C9.9 0 19.8 0 30 0 C30 3.3 30 6.6 30 10 C26.7 10 23.4 10 20 10 C20 31.78 20 53.56 20 76 C16.7 76 13.4 76 10 76 C10 54.22 10 32.44 10 10 C6.7 10 3.4 10 0 10 C0 6.7 0 3.4 0 0 Z " fill="#4B4B4B" transform="translate(727,176)"/>
<path d="M0 0 C0.90878906 0.01804688 1.81757813 0.03609375 2.75390625 0.0546875 C4.96211003 0.101176 7.16794115 0.1664723 9.375 0.25 C9.375 2.89 9.375 5.53 9.375 8.25 C11.025 8.25 12.675 8.25 14.375 8.25 C-1.625 24.25 -1.625 24.25 -3.62890625 26.00390625 C-5.96703462 28.63487261 -6.56514947 30.59862776 -7.375 34 C-7.61734375 34.98484375 -7.8596875 35.9696875 -8.109375 36.984375 C-8.27953125 37.73203125 -8.4496875 38.4796875 -8.625 39.25 C-9.67300781 39.30607422 -9.67300781 39.30607422 -10.7421875 39.36328125 C-12.10730469 39.46189453 -12.10730469 39.46189453 -13.5 39.5625 C-14.40492188 39.62050781 -15.30984375 39.67851562 -16.2421875 39.73828125 C-18.98721601 40.0382039 -18.98721601 40.0382039 -20.625 43.25 C-20.625 30.38 -20.625 17.51 -20.625 4.25 C-12.55019968 1.02007987 -8.15732788 -0.31420818 0 0 Z " fill="#0E0E0E" transform="translate(172.625,232.75)"/>
<path d="M0 0 C7.79796831 -0.04535528 15.59586328 -0.08197588 23.39392757 -0.10362434 C27.01567969 -0.11401947 30.63733613 -0.12809965 34.2590332 -0.15087891 C37.76036571 -0.17276092 41.26160674 -0.18460067 44.7630024 -0.18975449 C46.73533778 -0.1951966 48.70763685 -0.21078449 50.67991638 -0.22659302 C59.9608009 -0.22774164 68.54697436 -0.11530309 76 6 C76 6.66 76 7.32 76 8 C76.66 8 77.32 8 78 8 C81.9166851 13.64002654 82.2034975 18.58707567 82.25 25.3125 C82.270625 26.04662109 82.29125 26.78074219 82.3125 27.53710938 C82.35823044 33.97938573 80.94460098 38.5406517 76.875 43.6875 C68.22568023 50.64456155 58.59115028 51.16747128 47.90625 51.09765625 C47.07411987 51.0962413 46.24198975 51.09482635 45.38464355 51.09336853 C42.7563907 51.08782167 40.12822662 51.07527945 37.5 51.0625 C35.70573041 51.05747812 33.91145946 51.05291642 32.1171875 51.04882812 C27.74473089 51.03872541 23.37246349 51.01914016 19 51 C19 60.9 19 70.8 19 81 C12.73 81 6.46 81 0 81 C0 64.83 0 48.66 0 32 C4.05667969 31.96261719 8.11335937 31.92523438 12.29296875 31.88671875 C15.53416974 31.84859375 18.77530365 31.80752112 22.01644135 31.7644577 C25.4341965 31.71985481 28.85183069 31.68040802 32.26977539 31.65356445 C36.19443149 31.62250194 40.11858601 31.56771382 44.04296875 31.51171875 C45.26396774 31.50532883 46.48496674 31.4989389 47.7429657 31.49235535 C48.8837709 31.47256119 50.02457611 31.45276703 51.19995117 31.43237305 C52.20144699 31.42126999 53.20294281 31.41016693 54.23478699 31.39872742 C57.48880692 30.92951692 59.38483843 29.97382765 62 28 C63.27994848 25.14831646 63.27994848 25.14831646 62.3125 22.875 C61.18519434 20.87624538 61.18519434 20.87624538 59.27337646 20.39564514 C56.59221766 19.92903195 54.03568134 19.83683577 51.31347656 19.79467773 C50.17259583 19.77473251 49.03171509 19.75478729 47.85626221 19.73423767 C46.63010193 19.71752518 45.40394165 19.70081268 44.140625 19.68359375 C42.88111023 19.66281265 41.62159546 19.64203156 40.32391357 19.62062073 C36.98341129 19.56633698 33.64289778 19.51607931 30.30230713 19.46777344 C26.89028607 19.41744296 23.47835177 19.3618173 20.06640625 19.30664062 C13.37767124 19.19954883 6.68887043 19.09825424 0 19 C0 12.73 0 6.46 0 0 Z M2 2 C2 6.95 2 11.9 2 17 C3.70051514 17.01458252 5.40103027 17.02916504 7.15307617 17.04418945 C12.78108182 17.09590342 18.40882078 17.16120608 24.03657055 17.23571491 C27.44761464 17.28038071 30.85854036 17.31964467 34.26977539 17.34643555 C38.19443149 17.37749806 42.11858601 17.43228618 46.04296875 17.48828125 C47.26396774 17.49467117 48.48496674 17.5010611 49.7429657 17.50764465 C50.8837709 17.52743881 52.02457611 17.54723297 53.19995117 17.56762695 C54.20144699 17.57873001 55.20294281 17.58983307 56.23478699 17.60127258 C59.46329001 18.06680369 61.3804231 19.08362164 64 21 C64.6640625 22.9375 64.6640625 22.9375 64.625 25 C64.63789062 25.680625 64.65078125 26.36125 64.6640625 27.0625 C63.64150456 30.04596316 61.76255859 30.62319604 59 32 C56.23478699 32.39872742 56.23478699 32.39872742 53.19995117 32.43237305 C52.05914597 32.45216721 50.91834076 32.47196136 49.7429657 32.49235535 C48.52196671 32.49874527 47.30096771 32.50513519 46.04296875 32.51171875 C44.15581902 32.53864555 44.15581902 32.53864555 42.23054504 32.56611633 C38.89817746 32.61105762 35.56617635 32.64338289 32.23364258 32.66955566 C28.82815382 32.69942124 25.42289156 32.74577088 22.01757812 32.79101562 C15.34503457 32.87846438 8.67303531 32.93850714 2 33 C2 48.51 2 64.02 2 80 C7.28 80 12.56 80 18 80 C18 69.77 18 59.54 18 49 C21.0834375 49.03480469 24.166875 49.06960937 27.34375 49.10546875 C30.34894893 49.12890315 33.35413745 49.14709762 36.359375 49.16479492 C38.43884887 49.17982843 40.51829131 49.20026074 42.59765625 49.22631836 C45.59643334 49.26294136 48.59478911 49.27978111 51.59375 49.29296875 C52.97548401 49.31619453 52.97548401 49.31619453 54.38513184 49.33988953 C63.32977651 49.34219189 69.78438779 46.96727052 76.43359375 40.8515625 C78.54892946 38.35114074 79 36.24167141 79 33 C79.66 33 80.32 33 81 33 C81.55136213 24.22415284 81.24920429 15.5924178 75.71484375 8.30859375 C68.11304248 1.21499089 57.69170923 1.58844637 47.99609375 1.70703125 C46.0175515 1.71339851 46.0175515 1.71339851 43.9990387 1.71989441 C40.52194615 1.73125322 37.04524004 1.76064069 33.56829834 1.79400635 C30.008476 1.8249028 26.44859015 1.83844121 22.88867188 1.85351562 C15.92560819 1.88552107 8.96286253 1.93821351 2 2 Z " fill="#1292FA" transform="translate(640,58)"/>
<path d="M0 0 C6.93 0 13.86 0 21 0 C21.86625 2.18625 22.7325 4.3725 23.625 6.625 C28.80793002 19.75699798 28.80793002 19.75699798 34.8125 32.51953125 C38.18649855 39.19487481 40.84034313 46.2133478 43.64013672 53.14404297 C46.74283116 60.81034178 50.0244522 68.28735445 53.90283203 75.60058594 C55 78 55 78 55 81 C51.77206203 81.23329086 48.54628768 81.37467674 45.3125 81.5 C44.40048828 81.56703125 43.48847656 81.6340625 42.54882812 81.703125 C36.08528734 81.89115528 36.08528734 81.89115528 33.48364258 79.75488281 C32.01856381 77.58346422 31.02852211 75.41296504 30 73 C29.47591553 71.82566406 28.95183105 70.65132813 28.41186523 69.44140625 C26.56435771 65.23725845 24.81068377 60.99619321 23.0625 56.75 C19.02470906 46.98027064 14.90090452 37.37681664 10 28 C7.6684094 32.41336793 5.69141617 36.71696742 4.0625 41.4375 C2.50852364 45.86176212 0.56550225 49.72944749 -1.78515625 53.7734375 C-3.43919409 56.80495381 -4.65175452 59.9450302 -5.890625 63.1640625 C-7.25781124 66.65905267 -8.71392342 70.11128626 -10.1875 73.5625 C-10.69667969 74.76003906 -11.20585938 75.95757812 -11.73046875 77.19140625 C-13 80 -13 80 -14 81 C-15.4887186 81.08669432 -16.981445 81.10703494 -18.47265625 81.09765625 C-19.37177734 81.09443359 -20.27089844 81.09121094 -21.19726562 81.08789062 C-22.61555664 81.07532227 -22.61555664 81.07532227 -24.0625 81.0625 C-25.01189453 81.05798828 -25.96128906 81.05347656 -26.93945312 81.04882812 C-29.29303065 81.0370011 -31.64648477 81.02052025 -34 81 C-33.30530652 76.04782788 -31.33923467 71.7410154 -29.375 67.1875 C-28.8332312 65.91737061 -28.8332312 65.91737061 -28.28051758 64.62158203 C-27.19312671 62.07837118 -26.09827814 59.53852594 -25 57 C-24.70818848 56.32501465 -24.41637695 55.6500293 -24.11572266 54.95458984 C-21.6661782 49.30258523 -19.17908496 43.66720783 -16.68847656 38.03320312 C-15.72050128 35.84353072 -14.75315228 33.65358137 -13.78637695 31.46337891 C-12.8281959 29.29306788 -11.86848167 27.12343287 -10.90698242 24.95458984 C-8.48109117 19.45997892 -6.14005134 13.95258234 -3.98120117 8.34716797 C-2.79224428 5.50301979 -1.3786078 2.7572156 0 0 Z M1 2 C0.2575 3.98 -0.485 5.96 -1.25 8 C-2.98993407 12.53660775 -4.84831492 16.87658486 -7.1015625 21.17578125 C-8.04131888 23.08389529 -8.78018172 24.99921478 -9.5 27 C-10.69779341 30.30667436 -12.1552955 33.40294103 -13.76171875 36.53515625 C-19.14082117 47.22916444 -19.14082117 47.22916444 -23.625 58.3125 C-25.06656253 62.17850861 -26.85252979 65.69064684 -28.81640625 69.3125 C-30.43523557 72.78297324 -30.43523557 72.78297324 -32 80 C-26.39 80 -20.78 80 -15 80 C-14.46890625 78.6490625 -13.9378125 77.298125 -13.390625 75.90625 C-12.67727095 74.10409239 -11.96371872 72.30201322 -11.25 70.5 C-10.72792969 69.1696875 -10.72792969 69.1696875 -10.1953125 67.8125 C-8.30705949 63.05689982 -6.30361793 58.43605717 -3.96435547 53.88525391 C-2.37326386 50.77477052 -0.9104558 47.60518247 0.5625 44.4375 C0.85318359 43.81681641 1.14386719 43.19613281 1.44335938 42.55664062 C4.2786493 36.4737703 6.96811086 30.40826575 9 24 C9.66 24 10.32 24 11 24 C11.31710937 24.75539063 11.63421875 25.51078125 11.9609375 26.2890625 C15.5606361 34.78116913 19.3341506 43.18561193 23.1652832 51.57568359 C26.34593191 58.54533794 29.47821675 65.53499971 32.57568359 72.54199219 C34.22924042 76.29830353 34.22924042 76.29830353 36 80 C41.61 80 47.22 80 53 80 C49.89682615 72.24206538 46.74549215 64.52866433 43.19921875 56.9609375 C40.00755963 50.07558257 37.02231694 43.1124648 34.0625 36.125 C30.29647484 27.26831232 26.46345812 18.46477952 22.3046875 9.78515625 C21.10877725 7.23221012 20.04701449 4.61753623 19 2 C13.06 2 7.12 2 1 2 Z " fill="#1490FB" transform="translate(907,58)"/>
<path d="M0 0 C5.94 0 11.88 0 18 0 C19 1 19 1 19.11352539 3.95922852 C19.10828857 5.25272217 19.10305176 6.54621582 19.09765625 7.87890625 C19.09515869 9.13517822 19.09266113 10.3914502 19.09008789 11.68579102 C19.08098389 13.29510498 19.07187988 14.90441895 19.0625 16.5625 C19.041875 21.656875 19.02125 26.75125 19 32 C33.19 32 47.38 32 62 32 C62 21.44 62 10.88 62 0 C68.27 0 74.54 0 81 0 C81 26.73 81 53.46 81 81 C74.73 81 68.46 81 62 81 C62 71.1 62 61.2 62 51 C47.81 51 33.62 51 19 51 C19 60.9 19 70.8 19 81 C12.73 81 6.46 81 0 81 C0 54.27 0 27.54 0 0 Z M1 2 C1 27.74 1 53.48 1 80 C6.28 80 11.56 80 17 80 C17 69.77 17 59.54 17 49 C32.51 49 48.02 49 64 49 C64 59.23 64 69.46 64 80 C69.28 80 74.56 80 80 80 C80 54.26 80 28.52 80 2 C74.72 2 69.44 2 64 2 C64 12.23 64 22.46 64 33 C48.49 33 32.98 33 17 33 C17 22.77 17 12.54 17 2 C11.72 2 6.44 2 1 2 Z " fill="#1495FA" transform="translate(330,58)"/>
<path d="M0 0 C27.39 0 54.78 0 83 0 C83 5.94 83 11.88 83 18 C82.505 18.495 82.505 18.495 82 19 C71.77 19 61.54 19 51 19 C51 39.46 51 59.92 51 81 C44.73 81 38.46 81 32 81 C32 60.54 32 40.08 32 19 C21.44 19 10.88 19 0 19 C0 12.73 0 6.46 0 0 Z M2 2 C2 6.95 2 11.9 2 17 C12.56 17 23.12 17 34 17 C34 37.79 34 58.58 34 80 C38.95 80 43.9 80 49 80 C49 59.21 49 38.42 49 17 C59.56 17 70.12 17 81 17 C81 12.05 81 7.1 81 2 C54.93 2 28.86 2 2 2 Z " fill="#128FFA" transform="translate(784,58)"/>
<path d="M0 0 C0 2.64 0 5.28 0 8 C2.64 8 5.28 8 8 8 C8 14.6 8 21.2 8 28 C-5.2 28 -18.4 28 -32 28 C-32 26.68 -32 25.36 -32 24 C-31.443125 23.79246094 -30.88625 23.58492188 -30.3125 23.37109375 C-24.09423276 20.86067843 -19.83514083 17.57595583 -15 13 C-13.25239449 11.4348223 -11.50231969 9.87239806 -9.75 8.3125 C-7.35732226 6.16747203 -5.02029005 4.0206093 -2.765625 1.73046875 C-1 0 -1 0 0 0 Z " fill="#0C0C0C" transform="translate(221,272)"/>
<path d="M0 0 C6.27 0 12.54 0 19 0 C19 20.79 19 41.58 19 63 C33.19 63 47.38 63 62 63 C62 68.94 62 74.88 62 81 C41.54 81 21.08 81 0 81 C0 54.27 0 27.54 0 0 Z M2 2 C2 27.41 2 52.82 2 79 C20.81 79 39.62 79 59 79 C59 74.38 59 69.76 59 65 C45.14 65 31.28 65 17 65 C17 44.21 17 23.42 17 2 C12.05 2 7.1 2 2 2 Z " fill="#118DFB" transform="translate(977,58)"/>
<path d="M0 0 C0.80937012 -0.00191345 1.61874023 -0.0038269 2.45263672 -0.00579834 C4.1500683 -0.00714876 5.84751062 -0.00353303 7.54492188 0.00488281 C10.11872928 0.01559889 12.69183888 0.00494845 15.265625 -0.0078125 C16.92708485 -0.0064907 18.58854427 -0.00392789 20.25 0 C21.00651855 -0.00404846 21.76303711 -0.00809692 22.54248047 -0.01226807 C29.59087657 0.04851406 37.15019905 0.47197354 42.4375 5.578125 C43.40816406 6.50818359 43.40816406 6.50818359 44.3984375 7.45703125 C48.84381698 12.11361654 51.2070247 15.34191559 51.33374023 21.85375977 C51.35303085 22.78225235 51.37232147 23.71074493 51.39219666 24.66737366 C51.45022694 28.92835386 51.49925639 33.18916849 51.5300293 37.45043945 C51.55155747 39.68985463 51.58559807 41.92918685 51.63256836 44.16821289 C51.69992538 47.41069821 51.72709137 50.65144278 51.74609375 53.89453125 C51.77392441 54.88344864 51.80175507 55.87236603 51.83042908 56.89125061 C51.80530644 65.49837708 48.69707665 71.69354835 42.625 77.765625 C36.07080554 81.69814168 29.50573542 81.68118093 22.0625 81.890625 C20.37785645 81.94536987 20.37785645 81.94536987 18.65917969 82.0012207 C15.48130859 82.09963606 12.30334354 82.18418361 9.125 82.265625 C8.39104004 82.28898926 7.65708008 82.31235352 6.90087891 82.33642578 C-3.82481491 82.67328447 -16.55677213 83.07038202 -24.875 75.265625 C-30.15559912 68.47854866 -31.18938329 61.13714556 -31.2109375 52.84375 C-31.2175943 51.94372253 -31.2242511 51.04369507 -31.23110962 50.11639404 C-31.24120413 48.21693962 -31.24592763 46.31744997 -31.24560547 44.41796875 C-31.24996543 41.53845493 -31.28628213 38.66049178 -31.32421875 35.78125 C-31.44747044 16.21071085 -31.44747044 16.21071085 -24.83203125 7.609375 C-23.77048828 6.69671875 -23.77048828 6.69671875 -22.6875 5.765625 C-21.99269531 5.1365625 -21.29789062 4.5075 -20.58203125 3.859375 C-14.3544428 0.192916 -7.07444924 -0.03785847 0 0 Z M-24.875 11.265625 C-29.27667381 17.39652781 -29.04043663 24.05833524 -29.078125 31.3203125 C-29.08382507 32.18069122 -29.08952515 33.04106995 -29.09539795 33.92752075 C-29.1048093 35.74121892 -29.11136648 37.55493388 -29.11523438 39.36865234 C-29.12494489 42.12498091 -29.15600672 44.88056463 -29.1875 47.63671875 C-29.19403088 49.40624561 -29.19928102 51.17577776 -29.203125 52.9453125 C-29.2154718 53.76015106 -29.2278186 54.57498962 -29.24053955 55.41452026 C-29.21111561 63.07037225 -27.35870188 69.62063777 -21.875 75.265625 C-13.58285179 82.0501099 0.13275102 80.63823915 10.26855469 80.63623047 C12.75263793 80.64062967 15.23497629 80.67713662 17.71875 80.71484375 C29.45566842 80.81766857 29.45566842 80.81766857 40.125 76.265625 C41.053125 75.688125 41.98125 75.110625 42.9375 74.515625 C49.3380361 67.93221644 50.27665524 60.09822768 50.328125 51.25390625 C50.33382507 50.48564011 50.33952515 49.71737396 50.34539795 48.92582703 C50.35481736 47.30286014 50.36136973 45.67987439 50.36523438 44.05688477 C50.37490071 41.6033283 50.40593603 39.15062448 50.4375 36.69726562 C50.50351275 26.9677539 50.33865111 18.36965911 45 9.890625 C38.16930287 3.65390153 30.17709633 2.10525098 21.1796875 2.02734375 C19.85301559 2.01523613 19.85301559 2.01523613 18.49954224 2.00288391 C16.62504022 1.98905181 14.75051311 1.97832574 12.87597656 1.97045898 C10.96932538 1.95896728 9.06270565 1.93856024 7.15625 1.90893555 C4.39300802 1.86599976 1.63072281 1.85005151 -1.1328125 1.83984375 C-1.97377472 1.82233566 -2.81473694 1.80482758 -3.68118286 1.78678894 C-12.25682253 1.81774389 -19.3122398 4.55759064 -24.875 11.265625 Z " fill="#1490FA" transform="translate(463.875,57.734375)"/>
<path d="M0 0 C0.66 0 1.32 0 2 0 C2 7.92 2 15.84 2 24 C-21.07707498 22.5754892 -21.07707498 22.5754892 -29 18 C-27.35 18 -25.7 18 -24 18 C-24.020625 17.030625 -24.04125 16.06125 -24.0625 15.0625 C-24 12 -24 12 -23 11 C-20.32941149 10.85884839 -17.67567762 10.95752893 -15 11 C-15 8.36 -15 5.72 -15 3 C-10.05 3 -5.1 3 0 3 C0 2.01 0 1.02 0 0 Z " fill="#2B2B2B" transform="translate(135,238)"/>
<path d="M0 0 C6.27 0 12.54 0 19 0 C19 26.73 19 53.46 19 81 C12.73 81 6.46 81 0 81 C0 54.27 0 27.54 0 0 Z M2 2 C2 27.74 2 53.48 2 80 C6.95 80 11.9 80 17 80 C17 54.26 17 28.52 17 2 C12.05 2 7.1 2 2 2 Z " fill="#138FF9" transform="translate(744,58)"/>
<path d="M0 0 C2.33507693 0.04501294 4.66216748 0.02076317 6.99731445 -0.01147461 C19.3784346 -0.00997957 19.3784346 -0.00997957 23.90942383 3.72094727 C28.80547235 8.92661443 27.62689887 15.88128942 27.64575195 22.57177734 C27.65543541 24.65250975 27.68646124 26.73224434 27.71801758 28.81274414 C27.72455065 30.14672269 27.72979993 31.48070826 27.73364258 32.81469727 C27.74766113 34.62417847 27.74766113 34.62417847 27.76196289 36.47021484 C27.24977567 41.33774755 25.98063625 44.55115887 22.17504883 47.70776367 C18.66929085 49.16334548 15.88737485 49.24609328 12.09301758 49.25610352 C11.05600708 49.26040878 11.05600708 49.26040878 9.99804688 49.26480103 C8.54239071 49.26683441 7.08670677 49.2613554 5.63110352 49.2487793 C3.41205333 49.23271333 1.19482411 49.24865063 -1.02416992 49.26782227 C-2.44344475 49.2658397 -3.86271844 49.26199575 -5.28198242 49.25610352 C-6.56459961 49.25271973 -7.8472168 49.24933594 -9.16870117 49.24584961 C-12.91370609 48.82149401 -14.70382984 48.25536361 -17.59448242 45.85766602 C-21.61449919 39.6984162 -21.15276999 33.19788531 -21.15039062 26.11767578 C-21.15695797 23.92831766 -21.21151278 21.74348982 -21.26831055 19.55493164 C-21.42716483 7.90930652 -21.42716483 7.90930652 -18.61791992 3.40454102 C-13.77230026 -0.99059025 -6.15181115 -0.13383341 0 0 Z M-15.59448242 3.85766602 C-19.4432917 9.9595474 -19.1189284 15.78744724 -19.09545898 22.7980957 C-19.09448453 24.85322385 -19.13620345 26.90463633 -19.18041992 28.95922852 C-19.45213693 36.83414398 -19.45213693 36.83414398 -16.25073242 43.73266602 C-10.56667635 48.27991087 -3.67032634 47.04168711 3.28051758 47.04516602 C5.20057617 47.06353516 5.20057617 47.06353516 7.15942383 47.08227539 C8.39305664 47.08420898 9.62668945 47.08614258 10.89770508 47.08813477 C12.58935791 47.0942981 12.58935791 47.0942981 14.31518555 47.10058594 C17.41214344 46.85714518 19.61083391 46.17352069 22.40551758 44.85766602 C22.40551758 44.19766602 22.40551758 43.53766602 22.40551758 42.85766602 C23.39551758 42.52766602 24.38551758 42.19766602 25.40551758 41.85766602 C26.5959587 36.21021336 26.58919124 30.66349228 26.59301758 24.92016602 C26.61138672 23.47480469 26.61138672 23.47480469 26.63012695 22.00024414 C26.7012716 12.98095717 26.7012716 12.98095717 22.96801758 4.98266602 C19.36200787 2.38633903 15.71120616 2.72866803 11.43676758 2.72485352 C10.76005005 2.72389679 10.08333252 2.72294006 9.3861084 2.72195435 C7.95719306 2.72127469 6.52827461 2.723114 5.09936523 2.72729492 C2.91358498 2.73264626 0.7280102 2.72734273 -1.45776367 2.72094727 C-2.84708704 2.72160809 -4.23641028 2.72288933 -5.62573242 2.72485352 C-7.52162109 2.72654541 -7.52162109 2.72654541 -9.45581055 2.72827148 C-12.62439225 2.71381248 -12.62439225 2.71381248 -15.59448242 3.85766602 Z " fill="#128FFB" transform="translate(470.594482421875,74.142333984375)"/>
<path d="M0 0 C15.51 0 31.02 0 47 0 C47 0.99 47 1.98 47 3 C37.31527607 5.52558509 27.80383486 5.22527215 17.875 5.125 C16.13802599 5.11495032 14.40104636 5.10582798 12.6640625 5.09765625 C8.4425675 5.07579974 4.22134693 5.04137951 0 5 C0 3.35 0 1.7 0 0 Z " fill="#000000" transform="translate(84,1)"/>
<path d="M0 0 C0 1.32 0 2.64 0 4 C-0.99 4.33 -1.98 4.66 -3 5 C-3.69255369 6.71489484 -4.38331961 8.43057147 -5.05859375 10.15234375 C-7.52223336 14.98761983 -12.1209051 17.12342504 -17 19 C-17.86625 19.70125 -18.7325 20.4025 -19.625 21.125 C-22 23 -22 23 -25 23 C-24.8125 21.25 -24.8125 21.25 -24 19 C-22.7934375 18.1028125 -22.7934375 18.1028125 -21.5625 17.1875 C-18.69609488 15.15618947 -18.69609488 15.15618947 -18.0625 11.5625 C-16.4101115 6.02213857 -12.74991103 4.03566163 -7.9375 1.1875 C-5.01141868 0.00461606 -3.11490441 -0.27484451 0 0 Z " fill="#0A7AEE" transform="translate(222,240)"/>
<path d="M0 0 C0.33 0.99 0.66 1.98 1 3 C-1.63671875 4.3671875 -1.63671875 4.3671875 -4.2734375 5.734375 C-7.16031317 7.8505463 -7.8570871 10.11016494 -8.4140625 13.578125 C-8.48367187 14.45984375 -8.55328125 15.3415625 -8.625 16.25 C-8.69976562 17.14203125 -8.77453125 18.0340625 -8.8515625 18.953125 C-8.90054688 19.62859375 -8.94953125 20.3040625 -9 21 C-8.21238281 21.20109375 -7.42476562 21.4021875 -6.61328125 21.609375 C-4 23 -4 23 -2.85546875 25.828125 C-2.63503906 26.95734375 -2.41460937 28.0865625 -2.1875 29.25 C-1.95417969 30.36890625 -1.72085938 31.4878125 -1.48046875 32.640625 C-1.02610599 35.81747034 -0.90778431 38.79671825 -1 42 C-2.32 42.66 -3.64 43.32 -5 44 C-5 43.34 -5 42.68 -5 42 C-4.34 42 -3.68 42 -3 42 C-3.4743677 39.18661171 -3.95424619 36.37436287 -4.4375 33.5625 C-4.57220703 32.76005859 -4.70691406 31.95761719 -4.84570312 31.13085938 C-5.20267224 27.24528697 -5.20267224 27.24528697 -7 24 C-8.98 24 -10.96 24 -13 24 C-13 29.61 -13 35.22 -13 41 C-12.01 41.33 -11.02 41.66 -10 42 C-10 42.99 -10 43.98 -10 45 C-11.65 44.34 -13.3 43.68 -15 43 C-15.61835769 38.20772787 -16.10788798 33.45680865 -16.25 28.625 C-16.27578125 27.81289062 -16.3015625 27.00078125 -16.328125 26.1640625 C-15.92192318 23.48506478 -15.14069545 22.61071745 -13 21 C-12.34 21 -11.68 21 -11 21 C-11.03480469 20.27554688 -11.06960937 19.55109375 -11.10546875 18.8046875 C-11.3980934 8.35380717 -11.3980934 8.35380717 -8 4 C-5.43536436 2.38635351 -2.80683975 1.13340322 0 0 Z " fill="#C7E2FE" transform="translate(128,151)"/>
<path d="M0 0 C4.85633035 -0.07453636 9.71232268 -0.12878329 14.5690918 -0.16479492 C16.21889044 -0.17981806 17.86864958 -0.2002426 19.51831055 -0.22631836 C21.89902536 -0.26298899 24.27920908 -0.27979103 26.66015625 -0.29296875 C27.38960953 -0.30845261 28.11906281 -0.32393646 28.87062073 -0.33988953 C33.96125802 -0.34153692 37.45169943 0.69061563 42 3 C43 4 43 4 43.375 7.3125 C43 11 43 11 40.6875 13.5 C39.800625 13.995 38.91375 14.49 38 15 C37.01 14.67 36.02 14.34 35 14 C36.65 12.68 38.3 11.36 40 10 C39.72459296 6.18186553 39.72459296 6.18186553 38 3 C35.44343927 2.86465267 32.91004977 2.789467 30.3515625 2.75390625 C28.77343201 2.72096518 27.19530714 2.68775358 25.6171875 2.65429688 C23.11983153 2.60687561 20.62249799 2.56246066 18.125 2.52319336 C15.72110759 2.483493 13.31769252 2.43193929 10.9140625 2.37890625 C10.16710114 2.3704921 9.42013977 2.36207794 8.65054321 2.35340881 C4.91315443 2.26420745 3.18697758 2.12465172 0 0 Z " fill="#0E9DFB" transform="translate(559,107)"/>
<path d="M0 0 C4.96580074 1.24145018 7.24244707 2.66670254 10 7 C12.13249409 12.06656398 12.24377016 16.48466219 12.125 21.875 C12.11597656 22.65875 12.10695312 23.4425 12.09765625 24.25 C12.07428063 26.16680055 12.03841653 28.08344191 12 30 C11.34 30 10.68 30 10 30 C9.97421875 28.865625 9.9484375 27.73125 9.921875 26.5625 C9.75659908 15.12010363 9.75659908 15.12010363 5 5 C1.93237162 2.96175327 1.93237162 2.96175327 -1 2 C-0.67 1.34 -0.34 0.68 0 0 Z " fill="#C5E1FE" transform="translate(152,152)"/>
<path d="M0 0 C5.56818182 0.56818182 5.56818182 0.56818182 7 2 C7.1875 4.4375 7.1875 4.4375 7 7 C5 9 5 9 2.5 9.25 C0 9 0 9 -2 7 C-2.25 4.5 -2.25 4.5 -2 2 C-1.34 1.34 -0.68 0.68 0 0 Z " fill="#52575B" transform="translate(160,182)"/>
<path d="M0 0 C0.66 0.33 1.32 0.66 2 1 C2 1.99 2 2.98 2 4 C-2.22857143 8 -2.22857143 8 -6 8 C-5.65120368 4.74456771 -4.97866739 3.98126893 -2.4375 1.75 C-1.633125 1.1725 -0.82875 0.595 0 0 Z " fill="#187FDE" transform="translate(203,255)"/>
<path d="M0 0 C0.33 0.99 0.66 1.98 1 3 C-0.6396875 3.804375 -0.6396875 3.804375 -2.3125 4.625 C-6.04467844 6.72529475 -7.44260141 8.969086 -9 13 C-9.33 13 -9.66 13 -10 13 C-9.51376147 6.67889908 -9.51376147 6.67889908 -7.25 3.6875 C-4.90730702 1.93048026 -2.76977419 0.92325806 0 0 Z " fill="#EDF6FF" transform="translate(128,151)"/>
<path d="M0 0 C4.89157798 1.2228945 7.34618634 2.6477456 10 7 C9.67 7.99 9.34 8.98 9 10 C8.46375 9.236875 7.9275 8.47375 7.375 7.6875 C4.79794186 4.77135526 2.54185596 3.5294378 -1 2 C-0.67 1.34 -0.34 0.68 0 0 Z " fill="#ECF5FF" transform="translate(152,152)"/>
<path d="M0 0 C3.00617269 3.00617269 2.59585316 5.82381598 3 10 C3.99 10.33 4.98 10.66 6 11 C6 11.99 6 12.98 6 14 C3.525 13.01 3.525 13.01 1 12 C0.67 8.04 0.34 4.08 0 0 Z " fill="#B4D8FF" transform="translate(112,182)"/>
<path d="M0 0 C2.475 0.495 2.475 0.495 5 1 C4.67 2.32 4.34 3.64 4 5 C2.68 5 1.36 5 0 5 C0 3.35 0 1.7 0 0 Z " fill="#CDCDCE" transform="translate(160,184)"/>
<path d="M0 0 C0.33 0.99 0.66 1.98 1 3 C3.31 2.01 5.62 1.02 8 0 C7.67 1.32 7.34 2.64 7 4 C4.69 4 2.38 4 0 4 C0 2.68 0 1.36 0 0 Z " fill="#366189" transform="translate(196,260)"/>
</svg>
